<?xml version="1.0" encoding="UTF-8"?>
<svg xmlns="http://www.w3.org/2000/svg" xmlns:xlink="http://www.w3.org/1999/xlink" viewBox="0 0 1745.85 2301.94">
  <defs>
    <style>
      .cls-1 {
        fill: url(#linear-gradient);
      }

      .cls-2 {
        isolation: isolate;
      }

      .cls-3 {
        mix-blend-mode: screen;
        opacity: .3;
      }
    </style>
    <linearGradient id="linear-gradient" x1="872.92" y1="-172.12" x2="872.92" y2="3055.17" gradientUnits="userSpaceOnUse">
      <stop offset="0" stop-color="#0eded1"/>
      <stop offset=".12" stop-color="#0edace" stop-opacity=".98"/>
      <stop offset=".24" stop-color="#0ecec6" stop-opacity=".93"/>
      <stop offset=".35" stop-color="#0ebab9" stop-opacity=".84"/>
      <stop offset=".47" stop-color="#0e9ea6" stop-opacity=".71"/>
      <stop offset=".59" stop-color="#0e7a8e" stop-opacity=".54"/>
      <stop offset=".71" stop-color="#0e4e71" stop-opacity=".34"/>
      <stop offset=".82" stop-color="#0e1b4f" stop-opacity=".1"/>
      <stop offset=".87" stop-color="#0f0541" stop-opacity="0"/>
    </linearGradient>
  </defs>
  <g class="cls-2">
    <g id="Layer_2">
      <g id="Bottom_layer">
        <g class="cls-3">
          <path class="cls-1" d="M878.76,81.17c-28.63-11.46,1.67-58.78-26.44-75.04-16.5-9.54-57.27-5.82-79.71-2.87-17.13,2.25-57.38,2.09-76.54,18.5-16.76,14.36-28.03,30.17-48.46,42.82s-43.31,12.44-63.57,22.66c-22.45,11.32-36.23,33.24-55.26,41.41-37.85,16.24-16.9,83.25-51.71,85.43-36.99,2.32-37.23,1.28-80.54-4.13-21.88-2.73-40.39-71.73-66.97-73.47-24.17-1.58-51.17,16.05-75.85,16.54-25.79.52-46.22,34.65-68.98,38.78-27.63,5.02-36.78,14.35-53.95,26.93-20.24,14.83-49.46,8.97-45.2,38.02,3.04,20.73,23.59,43.31,25.44,69.17,1.59,22.26,1.99,46.88,2.69,71.54.66,23,2.41,47.39,2.3,71.4-.11,23.52-26.62,46.96-27.47,70.46-.87,24.01-5.33,47.29-6.97,70.24-1.77,24.62,3.38,48.75.72,70.9-3.09,25.73-27.44,44.85-31.75,65.38-6.26,29.86,16.79,63.04,7.94,76.62-10.98,16.84,16.49,39.65,12.75,64.73-3.04,20.41-73.81,39.68-71.16,64.16,2.27,20.97,75.96,27.58,82.95,50.7,6.18,20.45,7.32,37.66,17.57,59.22,9.25,19.45-24.86,62.38-12.04,82.32,11.71,18.21,5.15,54.42,20.05,72.71,14.64,17.97,31.83,22.02,39.42,43.63s17.5,37.08,19.54,60.31c1.97,22.47,51.2,46.52,49.34,69.52-1.85,22.92,2.94,51.2-1.49,73.31-4.66,23.25-78.3,29.45-84.44,50.32-7.12,24.2-14.59,44.04-21.65,62.8-14.54,38.65,20.7,40.8,18.05,75-2.76,35.64,29.45,31.5,31.78,67.16,2.33,35.66-42.8,38.62-40.47,74.28,2.33,35.67,22.21,34.37,24.55,70.03,2.33,35.67-42.48,38.6-40.15,74.27,2.33,35.67,28.67,33.95,31,69.61,2.33,35.67-27.47,49.98-7.17,79.4,21.29,30.86,59.93-21.34,93.6-4.84,33.66,16.5,10.75,63.24,44.42,79.74,33.67,16.5,44.19-4.97,77.86,11.53,33.67,16.5,17.78,48.91,51.45,65.41,33.67,16.5,32.27,19.36,65.94,35.86,33.67,16.5,40.54,17.96,77.15,26.05,34.12,7.55,40.9-6.39,75.81-7.72,34.91-1.33,35.23,6.93,70.14,5.6,34.92-1.33,35.14,4.58,70.06,3.24s32.82-56.33,67.73-57.66c34.92-1.33,35.61,16.74,70.53,15.41s39.34,38.66,74.02,34.43,36.21-14.81,71.23-22,34.65-8.99,69.67-16.18,25.25-54.8,60.26-61.99c35.02-7.19,35.19-6.36,70.2-13.55,35.02-7.19,35.74-3.67,70.76-10.86,35.02-7.19,31.25-25.55,66.27-32.74,35.02-7.19,36.87,1.81,71.89-5.38,35.02-7.19,81.2,68.77,105.79,42.82,25.39-26.8-10.16-62.32-3.89-98.71,6.26-36.39,22.29-33.63,28.55-70.02,6.26-36.39-33.96-43.31-27.7-79.7,6.26-36.39,6.87-36.28,13.13-72.67s24.46-33.26,30.72-69.64c6.26-36.39,12.76-35.27,19.02-71.66,6.26-36.39,21.07-33.84,27.33-70.23,6.26-36.39-54.02-46.76-47.76-83.15,6.26-36.39,85.59-30.94,85.22-67.87-.35-35.04-69.82-29.64-76.78-63.98-6.97-34.34,49.23-45.74,42.27-80.09s-69.59-21.64-76.55-55.98c-6.97-34.34,20.11-39.84,13.14-74.18-6.97-34.35-50.15-25.59-57.12-59.93-6.97-34.35,60.9-40.75,62.81-75.74,2.07-37.88,19.5-25.73,30.33-62.09,10.83-36.36-29.25-48.29-18.42-84.65,10.83-36.36,41.3-27.28,52.13-63.64,10.83-36.36-23.53-46.59-12.7-82.95,10.83-36.36,22.35-32.93,33.18-69.29,10.83-36.36,3.85-38.44,14.68-74.8,10.83-36.36,61.27-34.06,62.53-71.98,1.15-34.68-17.71-43.67-26.21-77.31-8.5-33.64-31.61-27.8-40.11-61.44-8.5-33.64-.07-35.77-8.57-69.4-8.5-33.64-16.13-31.71-24.63-65.35-8.5-33.64-50.64-22.99-59.14-56.63-8.5-33.64,19.8-40.79,11.3-74.43-8.5-33.64,3.43-33.81-24.76-54.05-29.66-21.31-25.64,14.21-62.14,15.53-36.5,1.32-37.47-25.71-73.97-24.4-36.5,1.32-36.27,7.62-72.77,8.93s-37.55-27.89-74.06-26.58c-36.5,1.32-36.23,8.72-72.74,10.03s-35.55,11.34-72.04,9.7c-33.46-1.5-30.94-15.41-64.14-19.85-33.2-4.45-33.66-1-66.85-5.45-33.2-4.45-35.61,32.4-69.1,31.68-34.32-.73-36.04-17.56-67.13-30Z"/>
        </g>
      </g>
    </g>
  </g>
</svg>