<svg xmlns="http://www.w3.org/2000/svg" version="1.1" viewBox="-5.0 -10.0 110.0 135.0">
 <path d="m30.832 50-29.16-29.16c-0.89844-0.89844-0.89844-2.3516 0-3.25l9.9961-9.9961c0.89844-0.89844 2.3477-0.89844 3.25 0l40.781 40.781c0.89844 0.89844 0.89844 2.3516 0 3.25l-40.781 40.781c-0.89844 0.89844-2.3516 0.89844-3.25 0l-9.9961-9.9961c-0.89844-0.89844-0.89844-2.3477 0-3.25zm42.633 0-29.16-29.16c-0.89844-0.89844-0.89844-2.3516 0-3.25l9.9961-9.9961c0.89844-0.89844 2.3516-0.89844 3.25 0l40.781 40.781c0.89844 0.89844 0.89844 2.3516 0 3.25l-40.781 40.781c-0.89844 0.89844-2.3516 0.89844-3.25 0l-9.9961-9.9961c-0.89844-0.89844-0.89844-2.3477 0-3.25z"/>
<text x="0.0" y="117.5" font-size="5.0" font-weight="bold" font-family="Arbeit Regular, Helvetica, Arial-Unicode, Arial, Sans-serif" fill="#000000">Created by VERA</text><text x="0.0" y="122.5" font-size="5.0" font-weight="bold" font-family="Arbeit Regular, Helvetica, Arial-Unicode, Arial, Sans-serif" fill="#000000">from Noun Project</text></svg>