<?xml version="1.0" encoding="utf-8"?>
<!-- Generator: Adobe Illustrator 21.0.0, SVG Export Plug-In . SVG Version: 6.00 Build 0)  -->
<svg version="1.1" id="Lager_1" xmlns="http://www.w3.org/2000/svg" xmlns:xlink="http://www.w3.org/1999/xlink" x="0px" y="0px"
	 viewBox="0 0 68 72.3" style="enable-background:new 0 0 68 72.3;" xml:space="preserve">
<polygon points="6.4,64 5.3,64 2.1,60.5 2.1,64 0.8,64 0.8,58.4 2,58.4 5,61.7 5,58.4 6.4,58.4 "/>
<path d="M9.9,62.2v0.9c-0.2,0.2-0.4,0.3-0.6,0.3c-0.2,0-0.4-0.2-0.4-0.4c0-0.3,0.2-0.5,0.6-0.6l0.3-0.1L9.9,62.2z M11.8,63L11.8,63
	c-0.3,0.1-0.4,0.2-0.5,0.2c-0.1,0-0.2-0.1-0.2-0.3v-1.5c0-0.4,0-0.5-0.1-0.7c-0.2-0.4-0.8-0.6-1.5-0.6c-0.3,0-0.6,0-0.8,0.1
	c-0.2,0.1-0.6,0.2-0.8,0.4v1c0.4-0.4,0.9-0.6,1.4-0.6c0.5,0,0.7,0.2,0.7,0.6v0l-0.1,0l-0.2,0.1l-0.2,0.1c-0.7,0.2-0.9,0.3-1.2,0.4
	c-0.4,0.2-0.6,0.6-0.6,0.9c0,0.6,0.5,1,1.1,1c0.4,0,0.8-0.1,1.2-0.4l0.1,0c0.1,0.3,0.3,0.4,0.7,0.4c0.3,0,0.8-0.1,1.1-0.3V63z"/>
<path d="M15.3,61H14v0.8v0.2v0.1c0,0.8,0.1,1,0.6,1c0.2,0,0.4-0.1,0.7-0.2c0,0,0,0,0.1,0v0.9c-0.4,0.2-0.7,0.2-1.1,0.2
	c-0.5,0-1-0.2-1.2-0.6c-0.2-0.3-0.2-0.5-0.2-1.1V61h-0.5v-0.2l1.6-1.8H14v1.2h1.4V61z"/>
<path d="M17.5,64h-1.1v-3.8h1.1V64z M16.9,59.6c-0.4,0-0.7-0.3-0.7-0.6c0-0.4,0.3-0.7,0.7-0.7c0.4,0,0.6,0.3,0.6,0.7
	C17.6,59.3,17.3,59.6,16.9,59.6"/>
<path d="M21.5,62.1c0,0.5-0.1,0.7-0.2,0.9c-0.2,0.2-0.4,0.3-0.6,0.3c-0.6,0-0.9-0.4-0.9-1.2c0-0.9,0.3-1.3,0.8-1.3
	C21.2,60.8,21.5,61.2,21.5,62.1L21.5,62.1z M22.8,62.1c0-0.5-0.1-0.9-0.4-1.2c-0.4-0.5-1-0.7-1.7-0.7c-1.2,0-2.2,0.8-2.2,2
	c0,1.2,0.9,2,2.2,2C21.9,64.1,22.8,63.3,22.8,62.1"/>
<path d="M25.1,60.7c0.4-0.4,0.8-0.6,1.2-0.6c0.6,0,1,0.3,1.2,0.7c0.1,0.2,0.1,0.4,0.1,0.9V64h-1.2v-2.1c0-0.7-0.2-0.9-0.6-0.9
	c-0.3,0-0.6,0.2-0.8,0.6V64h-1.2v-3.8h1.2V60.7z"/>
<path d="M31.1,62.2v0.9c-0.2,0.2-0.4,0.3-0.6,0.3c-0.2,0-0.4-0.2-0.4-0.4c0-0.3,0.2-0.5,0.6-0.6l0.3-0.1L31.1,62.2z M32.9,63
	L32.9,63c-0.3,0.1-0.4,0.2-0.5,0.2c-0.1,0-0.2-0.1-0.2-0.3v-1.5c0-0.4,0-0.5-0.1-0.7c-0.2-0.4-0.8-0.6-1.5-0.6c-0.3,0-0.6,0-0.8,0.1
	c-0.2,0.1-0.6,0.2-0.8,0.4v1c0.4-0.4,0.9-0.6,1.4-0.6c0.5,0,0.7,0.2,0.7,0.6v0l-0.1,0l-0.2,0.1l-0.2,0.1c-0.7,0.2-0.9,0.3-1.2,0.4
	c-0.4,0.2-0.6,0.6-0.6,0.9c0,0.6,0.5,1,1.1,1c0.4,0,0.8-0.1,1.2-0.4l0.1,0c0.1,0.3,0.3,0.4,0.7,0.4c0.3,0,0.8-0.1,1.1-0.3V63z"/>
<rect x="33.8" y="58.4" width="1.2" height="5.6"/>
<polygon points="42.9,64 38.6,64 38.6,58.4 40,58.4 40,62.9 42.9,62.9 "/>
<path d="M45,64h-1.1v-3.8H45V64z M44.5,59.6c-0.4,0-0.7-0.3-0.7-0.6c0-0.4,0.3-0.7,0.7-0.7c0.4,0,0.6,0.3,0.6,0.7
	C45.1,59.3,44.9,59.6,44.5,59.6"/>
<path d="M47.6,61.2c0.2-0.1,0.5-0.2,0.7-0.2c0.6,0,0.9,0.4,0.9,1.1c0,0.7-0.4,1.1-0.9,1.1c-0.2,0-0.5-0.1-0.7-0.3V61.2z M47.6,58.4
	h-1.2V64h1.2v-0.3c0.3,0.2,0.7,0.4,1.1,0.4c1,0,1.8-0.8,1.8-2c0-1.2-0.8-2-1.9-2c-0.4,0-0.6,0.1-1,0.3V58.4z"/>
<path d="M52.8,61.3L52.8,61.3c0.1-0.3,0.3-0.5,0.5-0.8c0.2-0.3,0.5-0.4,0.8-0.4c0.2,0,0.5,0.1,0.8,0.3l-0.3,1.1
	c-0.3-0.2-0.5-0.3-0.7-0.3c-0.4,0-0.7,0.4-0.9,0.9l0,0.1l0,0.1V64h-1.2v-3.8h1.2V61.3z"/>
<path d="M57.5,62.2v0.9c-0.2,0.2-0.4,0.3-0.6,0.3c-0.2,0-0.4-0.2-0.4-0.4c0-0.3,0.2-0.5,0.6-0.6l0.3-0.1L57.5,62.2z M59.3,63
	L59.3,63c-0.3,0.1-0.4,0.2-0.5,0.2c-0.1,0-0.2-0.1-0.2-0.3v-1.5c0-0.4,0-0.5-0.1-0.7c-0.2-0.4-0.8-0.6-1.5-0.6c-0.3,0-0.6,0-0.8,0.1
	c-0.2,0.1-0.6,0.2-0.8,0.4v1c0.4-0.4,0.9-0.6,1.4-0.6c0.5,0,0.7,0.2,0.7,0.6v0l-0.1,0l-0.2,0.1L57,61.7c-0.7,0.2-0.9,0.3-1.2,0.4
	c-0.4,0.2-0.6,0.6-0.6,0.9c0,0.6,0.5,1,1.1,1c0.4,0,0.8-0.1,1.2-0.4l0.1,0c0.1,0.3,0.3,0.4,0.7,0.4c0.3,0,0.8-0.1,1.1-0.3V63z"/>
<path d="M61.4,61.3L61.4,61.3c0.1-0.3,0.3-0.5,0.5-0.8c0.2-0.3,0.5-0.4,0.8-0.4c0.2,0,0.5,0.1,0.8,0.3l-0.3,1.1
	c-0.3-0.2-0.5-0.3-0.7-0.3c-0.4,0-0.7,0.4-0.9,0.9l0,0.1l0,0.1V64h-1.2v-3.8h1.2V61.3z"/>
<polygon points="65.3,65.8 64,65.8 65.2,63.4 63.7,60.2 65,60.2 65.8,62.1 66.6,60.2 67.9,60.2 "/>
<path d="M16.1,69.8c0,0.5-0.1,0.7-0.2,0.9c-0.2,0.2-0.4,0.3-0.6,0.3c-0.6,0-0.9-0.4-0.9-1.2c0-0.9,0.3-1.3,0.8-1.3
	C15.8,68.5,16.1,68.9,16.1,69.8L16.1,69.8z M17.3,69.8c0-0.5-0.1-0.9-0.4-1.2c-0.4-0.5-1-0.7-1.7-0.7c-1.2,0-2.2,0.8-2.2,2
	c0,1.2,0.9,2,2.2,2C16.5,71.8,17.3,71,17.3,69.8"/>
<path d="M20.4,67.9v0.8h-0.5v3h-1.2v-3h-0.5v-0.8h0.5v-0.1c0-0.5,0.1-0.8,0.3-1.1c0.1-0.2,0.2-0.3,0.4-0.4c0.3-0.2,0.6-0.3,1-0.3
	c0.1,0,0.3,0,0.4,0l0.3,0l0.1,0v1L21,67c-0.2,0-0.3,0-0.5,0c-0.5,0-0.7,0.2-0.7,0.8v0.1H20.4z"/>
<path d="M27.8,67.6L27.8,67.6C27.1,67.2,26.5,67,26,67c-0.5,0-0.8,0.2-0.8,0.5c0,0.2,0.3,0.4,0.9,0.7l0.4,0.2
	c1.1,0.4,1.6,0.9,1.6,1.8c0,1-0.9,1.7-2.2,1.7c-0.5,0-0.9-0.1-1.5-0.3c-0.3-0.1-0.4-0.1-0.5-0.2V70c0.4,0.3,0.6,0.4,0.9,0.5
	c0.4,0.1,0.7,0.2,1,0.2c0.6,0,0.9-0.2,0.9-0.5c0-0.3-0.2-0.4-0.8-0.6l-0.3-0.1c-0.4-0.2-0.7-0.3-0.9-0.4c-0.2-0.1-0.4-0.3-0.5-0.4
	c-0.2-0.3-0.4-0.7-0.4-1c0-1,0.8-1.6,2.1-1.6c0.6,0,1.2,0.1,1.9,0.4V67.6z"/>
<polygon points="33.5,71.8 32.9,71.8 32,69.7 31,71.8 30.4,71.8 28.7,67.9 30,67.9 30.8,69.9 31.6,67.9 32.3,67.9 33.2,69.9 
	34,67.9 35.2,67.9 "/>
<path d="M37.1,69.4c0-0.5,0.4-0.8,0.8-0.8c0.5,0,0.8,0.3,0.8,0.8H37.1z M39.7,70.5L39.7,70.5c-0.6,0.4-0.9,0.5-1.4,0.5
	c-0.8,0-1.2-0.4-1.3-1h2.7v-0.1c0-1.2-0.8-2.1-2-2.1c-1.2,0-2,0.8-2,2c0,1.2,0.8,2,2.1,2c0.8,0,1.4-0.2,1.8-0.5V70.5z"/>
<path d="M43.5,70.6c-0.2,0.2-0.5,0.3-0.7,0.3c-0.6,0-0.9-0.4-0.9-1.1c0-0.8,0.3-1.2,0.9-1.2c0.2,0,0.5,0.1,0.7,0.2V70.6z M44.7,66.1
	h-1.2v2c-0.3-0.2-0.6-0.2-1-0.2c-1.1,0-1.8,0.8-1.8,2c0,1.1,0.8,2,1.8,2c0.4,0,0.7-0.1,1.1-0.4v0.3h1.2V66.1z"/>
<path d="M47.1,69.4c0-0.5,0.4-0.8,0.8-0.8c0.5,0,0.8,0.3,0.8,0.8H47.1z M49.7,70.5L49.7,70.5c-0.6,0.4-0.9,0.5-1.4,0.5
	c-0.8,0-1.2-0.4-1.3-1h2.7v-0.1c0-1.2-0.8-2.1-2-2.1c-1.2,0-2,0.8-2,2c0,1.2,0.8,2,2.1,2c0.8,0,1.4-0.2,1.8-0.5V70.5z"/>
<path d="M52.1,68.4c0.4-0.4,0.8-0.6,1.2-0.6c0.6,0,1,0.3,1.2,0.7c0.1,0.2,0.1,0.4,0.1,0.9v2.2h-1.2v-2.1c0-0.7-0.2-0.9-0.6-0.9
	c-0.3,0-0.6,0.2-0.8,0.6v2.5h-1.2v-3.8h1.2V68.4z"/>
<polygon points="17.8,10.4 21.7,10.6 20.5,11.9 17.1,11.7 19,13.5 18.1,14.6 13.9,10.8 14.9,9.7 16.8,11.5 16.8,11.4 16.1,8.4 
	17.1,7.3 "/>
<path d="M27.7,4.6c0.1,0.2,0.2,0.4,0.2,0.6C28,5.6,28,6,27.9,6.4c-0.1,0.5-0.5,1-1,1.3c-0.2,0.2-0.5,0.3-0.8,0.5
	c-0.7,0.3-1.2,0.4-1.7,0.3c-0.3,0-0.6-0.1-0.8-0.3c-0.4-0.3-0.8-0.6-1-1.3l-1.3-2.8l1.3-0.6l1.1,2.5c0.2,0.5,0.4,0.7,0.6,0.9
	c0.4,0.3,0.9,0.3,1.4,0.1c0.6-0.3,1-0.9,0.8-1.5c0-0.1-0.1-0.2-0.1-0.3L26.3,5l-1.1-2.5l1.3-0.6L27.7,4.6z"/>
<polygon points="37.2,6.5 36.1,6.5 33,2.9 32.9,6.4 31.6,6.4 31.6,0.8 32.9,0.8 35.9,4.2 35.9,0.8 37.3,0.9 "/>
<path d="M46.7,5.9L46.7,5.9c-0.5-0.6-1.1-1.1-1.7-1.4c-1.1-0.5-2.1-0.3-2.6,0.7c-0.4,0.9,0,1.8,0.9,2.3c0.3,0.2,0.6,0.2,1,0.3
	l0.3-0.6l-0.7-0.4l0.5-0.9l2,1l-1,2.1c-0.7,0.2-1.6,0-2.5-0.4c-1.8-0.8-2.5-2.5-1.8-4.1c0.7-1.6,2.5-2,4.3-1.1
	c0.4,0.2,0.9,0.5,1.2,0.8c0.2,0.2,0.3,0.3,0.6,0.6L46.7,5.9z"/>
<polygon points="50.3,14.8 47.4,11.6 51.6,7.8 52.6,8.9 49.1,11.9 51,14.1 "/>
<path d="M14.3,21.4L14.2,22c-0.1,0.6-0.3,0.9-0.8,0.8c-0.4-0.1-0.6-0.4-0.4-1l0.1-0.5L14.3,21.4z M15.5,20.2l-5.5-1l-0.5,2.5
	c-0.1,0.5-0.1,0.8-0.1,1.1c0.1,0.7,0.6,1.2,1.3,1.4c0.7,0.1,1.3-0.2,1.6-0.9c0.1,0.5,0.5,0.9,1,0.9c0.6,0.1,1.2-0.2,1.5-0.8
	c0.1-0.3,0.2-0.5,0.3-1.1L15.5,20.2z M12.1,21l-0.1,0.6c-0.2,0.9-0.4,1.2-0.9,1.1c-0.5-0.1-0.6-0.4-0.5-1.3l0.1-0.7L12.1,21z"/>
<rect x="9.4" y="28.2" transform="matrix(0.991 -0.1339 0.1339 0.991 -3.7571 1.8914)" width="5.6" height="1.4"/>
<path d="M15.5,34.2l0.2,0.5c0.3,0.6,0.2,0.9-0.1,1.1c-0.4,0.2-0.7,0-1-0.6l-0.2-0.5L15.5,34.2z M15.8,32.5l-5,2.5l1.1,2.3
	c0.2,0.4,0.4,0.7,0.6,0.9c0.5,0.5,1.2,0.6,1.8,0.3c0.7-0.3,0.9-0.9,0.8-1.7c0.4,0.3,0.9,0.4,1.4,0.2c0.5-0.3,0.8-0.9,0.7-1.5
	c-0.1-0.3-0.1-0.5-0.4-1L15.8,32.5z M13.5,35.2l0.3,0.6c0.4,0.8,0.4,1.2,0,1.4c-0.5,0.2-0.7,0-1.1-0.8l-0.3-0.6L13.5,35.2z"/>
<polygon points="18.9,45.8 15.8,42.9 19.6,38.8 20.6,39.8 17.5,43.1 19.6,45.1 "/>
<rect x="20.6" y="44.6" transform="matrix(0.4864 -0.8737 0.8737 0.4864 -27.5387 43.6942)" width="5.6" height="1.4"/>
<path d="M32.2,48.1c-0.2,1-1,1.6-2,1.4c-1-0.2-1.6-1-1.5-2c0.2-1,1-1.6,2-1.4C31.8,46.3,32.4,47,32.2,48.1 M33.6,48.3
	c0.3-1.6-0.9-3.1-2.7-3.4c-1.8-0.3-3.4,0.7-3.7,2.3c-0.3,1.6,0.9,3.1,2.7,3.4C31.8,50.9,33.4,49.9,33.6,48.3"/>
<polygon points="41.7,45.1 39.7,45.6 40.8,50 39.4,50.3 38.3,45.9 36.3,46.4 36.1,45.3 41.4,44 "/>
<polygon points="50.6,44.8 47.3,47.2 44,42.7 47.3,40.3 47.9,41.1 45.7,42.7 46.4,43.6 48.5,42.1 49.1,43 47,44.5 47.8,45.6 50,44 
	"/>
<polygon points="53.2,37 57,36.5 56.1,38 52.7,38.5 54.9,39.8 54.2,41 49.4,38.1 50.1,36.9 52.3,38.2 52.3,38.2 51.1,35.4 51.9,34 
	"/>
<polygon points="59.1,28.3 58.4,32.4 52.8,31.4 53.6,27.4 54.6,27.6 54.1,30.2 55.2,30.4 55.7,27.9 56.7,28.1 56.3,30.6 57.6,30.8 
	58.1,28.2 "/>
<polygon points="53.6,19 54,21 58.5,20 58.8,21.4 54.3,22.4 54.7,24.4 53.7,24.6 52.5,19.2 "/>
<path d="M33.3,19.6l0-1.8c0,0,0.8,0,1.9,0l0,1.8L33.3,19.6z"/>
<polygon points="33.3,30.8 33.3,21.4 35.2,21.3 35.2,30.8 "/>
<polygon points="25.5,32.6 25.1,30.8 33.3,30.8 33.3,32.6 "/>
<polygon points="43,32.6 43.4,30.7 35.2,30.7 35.2,32.6 "/>
<path d="M22.9,21c0,0,5.4-1.5,10.4-1.4l0,1.7c0,0-4.4-0.2-10,1.4L22.9,21z"/>
<path d="M45.6,21c0,0-5.5-1.5-10.4-1.4l0,1.7c0,0,4.5-0.2,10,1.4L45.6,21z"/>
<path d="M21.1,21.5l-0.4-1.7c0,0,0.8-0.2,1.8-0.4l0.4,1.7L21.1,21.5z"/>
<path d="M23.3,31.2l-1.8-8c0,0,1.8-0.4,1.8-0.4l1.8,8L23.3,31.2z"/>
<path d="M47.4,21.4l0.4-1.7c0,0-0.8-0.2-1.8-0.4L45.6,21L47.4,21.4z"/>
<path d="M45.2,31.2l1.8-8c0,0-1.8-0.4-1.8-0.4l-1.8,8L45.2,31.2z"/>
<path d="M14.1,16.9c-0.4,0-0.7-0.3-0.7-0.7c0-0.4,0.3-0.7,0.7-0.7c0.4,0,0.7,0.3,0.7,0.7C14.8,16.6,14.5,16.9,14.1,16.9"/>
<path d="M54.2,16.9c-0.4,0-0.7-0.3-0.7-0.7c0-0.4,0.3-0.7,0.7-0.7c0.4,0,0.7,0.3,0.7,0.7C54.9,16.6,54.6,16.9,54.2,16.9"/>
</svg>
