<?xml version="1.0" encoding="UTF-8" standalone="no"?>
<svg
   xmlns:dc="http://purl.org/dc/elements/1.1/"
   xmlns:cc="http://creativecommons.org/ns#"
   xmlns:rdf="http://www.w3.org/1999/02/22-rdf-syntax-ns#"
   xmlns:svg="http://www.w3.org/2000/svg"
   xmlns="http://www.w3.org/2000/svg"
   viewBox="0 0 1043.5601 228.53333"
   height="228.53333"
   width="1043.5601"
   xml:space="preserve"
   id="svg2"
   version="1.1"><metadata
     id="metadata8"><rdf:RDF><cc:Work
         rdf:about=""><dc:format>image/svg+xml</dc:format><dc:type
           rdf:resource="http://purl.org/dc/dcmitype/StillImage" /></cc:Work></rdf:RDF></metadata><defs
     id="defs6" /><g
     transform="matrix(1.3333333,0,0,-1.3333333,0,228.53333)"
     id="g10"><g
       transform="scale(0.1)"
       id="g12"><path
         id="path14"
         style="fill:#ffffff;fill-opacity:1;fill-rule:nonzero;stroke:none"
         d="m 2516.61,1210.95 c 0,-130.48 -47.22,-228.313 -171.65,-228.313 -131.33,0 -174.24,90.993 -174.24,229.173 v 185.4 c 0,89.27 1.71,103.88 51.49,108.14 l 20.58,1.71 c 5.16,3.45 3.45,18.05 -1.71,20.63 -42.05,-1.71 -70.36,-2.58 -105.59,-2.58 -34.31,0 -63.49,0.87 -106.41,2.58 -5.15,-2.58 -6.86,-17.18 -1.71,-20.63 l 21.45,-1.71 c 49.78,-4.26 51.49,-18.87 51.49,-108.14 v -202.58 c 0,-102.14 21.47,-164.81 66.96,-202.548 42.05,-36.047 101.28,-47.227 160.51,-47.227 63.51,0 127.05,22.313 163.94,62.675 48.08,51.49 60.08,130.45 60.08,205.13 v 97.01 c 0,48.07 0,146.76 12.02,175.1 5.16,11.13 21.47,18.87 42.94,20.58 l 20.58,1.71 c 4.31,5.16 5.15,16.32 -1.72,20.63 -30.91,-1.71 -54.07,-2.58 -90.14,-2.58 -33.47,0 -65.2,0.87 -97.85,2.58 -5.13,-3.45 -6.84,-14.6 -1.71,-20.63 l 21.47,-1.71 c 21.44,-1.71 36.89,-7.71 42.91,-18.03 14.6,-25.73 16.31,-124.45 16.31,-177.65 z m 382.79,175.1 c -26.6,54.91 -48.05,108.14 -44.62,141.64 -28.32,-2.58 -51.5,-2.58 -71.23,-2.58 -21.47,0 -42.05,0.87 -67.81,2.58 -6.86,-3.45 -7.73,-16.31 -3.44,-21.47 l 13.73,-1.71 c 52.36,-6.87 59.23,-19.74 57.52,-73.83 -1.71,-47.21 -5.16,-120.17 -9.47,-191.42 -5.13,-84.96 -9.4,-132.17 -14.55,-188.82 -5.19,-60.092 -17.19,-65.249 -53.23,-70.405 l -18.89,-2.555 c -5.14,-4.289 -3.43,-17.179 1.71,-21.445 29.2,1.711 60.09,2.555 87.56,2.555 32.63,0 66.1,-0.844 95.28,-2.555 6,2.555 6.86,16.289 0.84,21.445 l -32.6,2.555 c -33.47,2.602 -38.63,16.313 -38.63,79.855 0,72.96 3.42,149.34 6.03,201.7 2.55,49.79 5.13,99.57 8.57,152.77 h 1.72 c 18.86,-39.47 36.89,-84.11 54.91,-123.58 l 77.28,-165.66 c 19.73,-42.05 60.93,-126.171 75.54,-171.686 1.71,-2.555 5.97,-3.422 7.71,-3.422 3.42,0 6.84,0.867 8.57,3.422 15.47,39.492 54.08,120.196 92.73,195.726 l 76.38,150.22 c 17.16,33.47 49.78,102.12 55.78,111.56 h 1.74 l 2.55,-357.94 c 0,-54.918 0,-68.652 -42.05,-72.965 l -24.89,-2.555 c -5.15,-5.156 -4.31,-17.179 1.71,-21.445 35.18,1.711 73.81,2.555 103.88,2.555 30.87,0 66.09,-0.844 101.27,-2.555 6,3.422 6.87,16.289 1.72,21.445 l -27.5,2.555 c -40.31,3.445 -39.47,26.625 -42.04,69.535 -6.85,123.62 -7.72,282.39 -9.45,373.37 -0.84,60.12 6.02,76.41 60.09,81.57 l 18.03,1.71 c 4.29,3.44 4.29,18.02 -0.85,21.47 -26.6,-1.71 -54.93,-2.58 -76.38,-2.58 -17.18,0 -35.23,0 -64.38,2.58 -1.71,-39.5 -26.61,-86.73 -65.25,-164.82 l -80.68,-163.92 c -21.47,-43.81 -42.94,-88.43 -66.12,-128.77 h -1.71 c -20.58,37.78 -39.47,77.25 -59.23,117.59 z m 682.4,-298.71 c 0,-90.102 -4.32,-102.992 -53.21,-107.305 l -28.36,-2.555 c -5.13,-5.156 -3.42,-18.89 1.74,-21.445 50.65,1.711 79.83,2.555 116.72,2.555 h 77.27 c 76.39,0 152.77,-0.844 230.02,-2.555 11.18,23.156 32.63,89.255 38.65,119.305 -3.47,7.73 -15.47,10.29 -21.47,6.02 -22.34,-44.65 -45.49,-74.7 -60.94,-83.278 -18.89,-9.445 -43.78,-12.891 -109.87,-12.891 -75.54,0 -93.54,9.446 -103.88,19.739 -13.71,14.6 -16.31,43.8 -16.31,89.27 v 121.06 c 0,22.29 2.6,23.15 28.36,23.15 h 49.78 c 33.47,0 54.05,-0.86 66.09,-4.28 17.16,-4.32 23.16,-17.16 26.61,-32.63 l 7.71,-33.47 c 4.29,-5.15 18.89,-5.15 22.31,0.87 0,18.87 -3.42,51.49 -3.42,82.38 0,32.63 3.42,66.1 3.42,86.7 -3.42,6.02 -18.02,6.02 -22.31,0.84 l -6.87,-35.18 c -4.29,-21.44 -10.29,-26.6 -20.58,-30.02 -10.31,-3.44 -36.91,-5.16 -72.96,-5.16 h -49.78 c -25.76,0 -28.36,0 -28.36,24.02 v 171.66 c 0,32.63 0,34.34 25.78,34.34 h 61.78 c 37.76,0 65.25,-0.84 83.28,-5.13 44.62,-11.18 52.36,-41.21 65.22,-81.54 4.29,-5.18 18.03,-3.45 21.45,1.71 -3.42,37.76 -8.58,99.57 -13.74,114.17 -10.28,-2.58 -60.93,-2.58 -115.85,-2.58 h -161.39 c -35.18,0 -64.36,0.87 -101.28,2.58 -5.13,-2.58 -6.86,-18.03 -1.71,-21.47 l 13.74,-1.71 c 50.65,-6.03 52.36,-18.9 52.36,-108.17 z M 4424.69,1041 c 6.85,-20.61 11.16,-36.07 11.16,-45.496 0,-8.602 -12.02,-13.734 -30.05,-15.469 l -24.91,-2.555 c -5.98,-4.289 -5.13,-18.023 1.76,-21.445 24.89,0.844 57.47,2.555 98.67,2.555 38.65,0 68.7,-0.844 103.88,-2.555 4.28,3.422 6.02,17.156 0,21.445 l -23.18,2.555 c -36.89,4.313 -48.08,17.203 -72.97,90.985 l -117.58,345.05 c -12.87,37.79 -26.61,77.28 -37.76,115.04 -1.71,6 -7.74,7.71 -12.89,7.71 -9.45,-11.13 -24.03,-26.6 -44.63,-32.6 2.58,-13.74 -2.55,-30.03 -14.6,-60.94 l -87.54,-231.76 c -36.07,-96.14 -60.07,-151.92 -75.52,-191.39 -12.05,-30.915 -30.91,-40.36 -51.51,-42.095 l -28.34,-2.555 c -5.13,-4.289 -3.42,-18.023 1.71,-21.445 23.18,0.844 54.09,2.555 82.41,2.555 40.36,-0.844 66.96,-0.844 89.27,-2.555 7.74,3.422 7.74,17.156 1.71,21.445 l -28.31,2.555 c -20.6,1.735 -24.89,6.867 -24.89,17.203 0,9.422 6,32.582 18.87,71.232 l 30.04,90.12 c 6,18.02 11.16,20.6 32.61,20.6 h 129.63 c 25.74,0 29.16,-2.58 35.18,-21.45 z m -153.66,342.47 c 9.45,25.76 18.05,46.34 20.61,50.65 h 1.71 c 5.18,-10.31 12.86,-33.47 19.73,-54.09 l 46.36,-139.88 c 7.74,-23.18 6.03,-26.63 -18.87,-26.63 h -105.58 c -24.03,0 -24.89,0.85 -18.03,20.61 z m 37.79,320.16 c -42.92,0 -72.97,-33.47 -72.97,-69.51 0,-36.92 30.05,-69.54 72.97,-69.54 42.91,0 72.96,32.62 72.96,69.54 0,36.04 -30.05,69.51 -72.96,69.51 m -38.65,-69.51 c 0,25.76 17.18,44.62 38.65,44.62 22.31,0 38.6,-18.86 38.6,-44.62 0,-26.63 -16.29,-45.49 -38.6,-45.49 -21.47,0 -38.65,18.86 -38.65,45.49 M 2515.29,418.41 c 0,-130.461 -47.2,-228.308 -171.68,-228.308 -131.3,0 -174.22,90.988 -174.22,229.179 v 185.391 c 0,89.277 1.71,103.879 51.5,108.168 l 20.57,1.707 c 5.19,3.422 3.47,18.023 -1.71,20.601 -42.04,-1.71 -70.36,-2.578 -105.56,-2.578 -34.34,0 -63.52,0.868 -106.43,2.578 -5.16,-2.578 -6.87,-17.179 -1.74,-20.601 l 21.47,-1.707 c 49.78,-4.289 51.5,-18.891 51.5,-108.168 v -202.57 c 0,-102.153 21.47,-164.801 66.96,-202.551 42.05,-36.051 101.27,-47.231 160.5,-47.231 63.52,0 127.06,22.309 163.95,62.668 48.07,51.492 60.07,130.481 60.07,205.153 v 96.988 c 0,48.07 0,146.793 12.02,175.101 5.16,11.141 21.47,18.872 42.94,20.61 l 20.58,1.707 c 4.31,5.133 5.16,16.312 -1.71,20.601 -30.92,-1.71 -54.1,-2.578 -90.12,-2.578 -33.49,0 -65.25,0.868 -97.88,2.578 -5.13,-3.421 -6.84,-14.601 -1.71,-20.601 l 21.47,-1.707 c 21.45,-1.738 36.92,-7.711 42.92,-18.051 14.6,-25.738 16.31,-124.457 16.31,-177.66 z m 718.44,98.719 c 0,39.492 -1.73,145.902 12.85,176.82 3.42,6.86 20.62,13.731 48.07,18.02 l 12.02,1.73 c 5.16,5.137 5.16,17.16 -1.71,21.449 -29.18,-1.71 -51.49,-2.578 -88.43,-2.578 -32.6,0 -61.78,0.868 -101.28,2.578 -6.84,-2.578 -7.71,-16.312 -1.71,-21.449 l 14.6,-1.73 c 34.32,-4.289 48.07,-9.449 53.21,-17.18 16.31,-25.738 17.15,-137.32 17.15,-177.66 v -183.68 c 0,-18.027 0,-31.789 -3.42,-36.051 h -1.71 c -40.34,41.204 -82.41,89.282 -141.63,155.352 l -83.26,93.539 c -28.31,31.781 -129.58,145.082 -146.79,188.859 -11.15,-1.71 -25.73,-2.578 -39.47,-2.578 -15.44,0 -60.96,0 -96.98,2.578 -6.89,-3.421 -6.89,-16.312 -1.71,-21.449 l 14.57,-1.73 c 20.61,-2.578 41.18,-8.598 53.23,-20.598 18.03,-19.762 18.87,-37.789 18.87,-61.812 V 381.52 c 0,-41.211 0.87,-145.95 -11.16,-176.821 -4.29,-9.437 -18.02,-14.597 -37.78,-17.179 l -23.16,-2.551 c -5.15,-5.16 -4.28,-17.207 1.72,-21.469 30.04,1.711 53.22,2.551 89.27,2.551 31.76,0 61.81,-0.84 100.41,-2.551 6.02,4.262 6.87,14.602 1.73,21.469 l -26.62,2.551 c -21.45,1.71 -38.6,6.871 -43.76,16.32 -14.6,25.75 -15.47,137.32 -15.47,177.68 v 187.101 c 0,25.738 0.87,45.5 4.31,55.809 h 1.71 c 18.03,-18.891 76.39,-89.282 99.57,-115.879 L 3110.12,281.93 c 74.67,-84.961 99.56,-115.008 109.85,-129.61 9.45,0 14.61,4.309 16.32,9.469 -2.56,22.293 -2.56,124.449 -2.56,150.211 z m 227.44,-220.598 c 0,-90.98 -1.71,-102.98 -52.38,-109.011 l -21.45,-2.551 c -5.15,-5.16 -3.44,-18.918 1.71,-21.469 42.92,1.711 72.12,2.551 108.17,2.551 34.34,0 63.52,-0.84 106.43,-2.551 5.13,2.551 6.84,18.02 1.71,21.469 l -21.47,2.551 c -50.62,6.031 -52.33,18.031 -52.33,109.011 V 602.09 c 0,90.992 1.71,105.59 52.33,109.879 l 21.47,1.73 c 5.13,3.426 3.42,18.871 -1.71,21.449 -42.91,-1.71 -72.09,-2.578 -106.43,-2.578 -36.05,0 -65.25,0.868 -108.17,2.578 -5.15,-2.578 -6.86,-18.023 -1.71,-21.449 l 21.45,-1.73 c 50.67,-4.289 52.38,-18.887 52.38,-109.879 z m 447.17,-27.472 c 14.61,-36.039 30.07,-78.118 39.5,-114.137 4.29,-1.731 8.6,-2.602 12.86,-2.602 3.45,0 6.87,0.871 9.45,2.602 14.6,45.469 54.94,145.027 89.27,224.019 l 46.36,105.559 c 38.61,87.57 72.1,157.09 96.12,197.422 11.16,18.027 24.05,28.34 44.63,30.047 l 25.78,1.73 c 4.27,4.27 4.27,18.028 -1.73,21.449 -28.32,-1.71 -54.94,-2.578 -83.28,-2.578 -32.6,0 -65.2,0.868 -89.25,2.578 -6,-3.421 -7.71,-16.312 -1.73,-21.449 l 15.46,-1.73 c 30.05,-3.418 38.63,-10.309 38.63,-16.309 0,-6 -0.87,-15.449 -7.73,-33.469 -14.61,-36.921 -54.94,-133.929 -79.83,-192.293 -19.74,-45.468 -55.79,-133.898 -82.39,-190.519 -42.94,97.851 -82.41,196.551 -121.9,296.109 -26.6,65.25 -41.2,111.594 -42.91,120.172 0.86,6.86 7.73,12.02 40.36,16.309 l 12.89,1.73 c 5.97,5.137 4.26,18.028 -1.74,21.449 -36.04,-1.71 -66.09,-2.578 -103.85,-2.578 -36.94,0 -64.38,0.868 -89.27,2.578 -6.9,-4.289 -7.74,-16.312 -1.72,-21.449 l 15.45,-1.73 c 36.89,-4.289 49.78,-22.309 69.52,-70.379 z m 487.53,25.761 c 0,-90.121 -4.26,-103.011 -53.2,-107.3 l -28.31,-2.551 c -5.16,-5.16 -3.45,-18.918 1.71,-21.469 50.65,1.711 79.8,2.551 116.74,2.551 h 77.23 c 76.41,0 152.79,-0.84 230.04,-2.551 11.16,23.18 32.61,89.27 38.63,119.301 -3.42,7.73 -15.45,10.289 -21.47,6.019 -22.29,-44.648 -45.47,-74.699 -60.94,-83.269 -18.87,-9.449 -43.76,-12.891 -109.85,-12.891 -75.54,0 -93.57,9.461 -103.85,19.75 -13.74,14.61 -16.32,43.789 -16.32,89.25 v 121.059 c 0,22.32 2.58,23.179 28.32,23.179 h 49.78 c 33.47,0 54.07,-0.859 66.09,-4.308 17.18,-4.289 23.18,-17.16 26.6,-32.629 l 7.74,-33.473 c 4.29,-5.129 18.87,-5.129 22.34,0.871 0,18.891 -3.47,51.493 -3.47,82.391 0,32.621 3.47,66.09 3.47,86.719 -3.47,6 -18.05,6 -22.34,0.82 l -6.87,-35.18 c -4.29,-21.449 -10.29,-26.609 -20.6,-30.027 -10.31,-3.441 -36.91,-5.152 -72.96,-5.152 h -49.78 c -25.74,0 -28.32,0 -28.32,24.019 v 171.66 c 0,32.653 0,34.36 25.76,34.36 h 61.78 c 37.79,0 65.23,-0.84 83.25,-5.16 44.63,-11.149 52.36,-41.2 65.26,-81.539 4.26,-5.149 18.02,-3.438 21.44,1.742 -3.42,37.726 -8.55,99.535 -13.71,114.136 -10.31,-2.578 -60.96,-2.578 -115.9,-2.578 h -161.35 c -35.2,0 -64.38,0.868 -101.32,2.578 -5.13,-2.578 -6.84,-18.023 -1.71,-21.449 l 13.76,-1.73 c 50.62,-6 52.33,-18.887 52.33,-108.168 z m 522.76,0 c 0,-90.121 -1.71,-101.269 -51.49,-107.3 l -21.47,-2.551 c -5.18,-6.028 -3.47,-18.918 1.71,-21.469 40.34,1.711 71.25,2.551 107.3,2.551 34.31,0 63.52,-0.84 102.12,-2.551 5.16,2.551 6.89,17.16 1.71,21.469 l -18.02,2.551 c -49.78,6.871 -51.5,17.179 -51.5,107.3 v 108.141 c 0,18.051 1.72,18.891 40.36,18.891 34.34,0 48.08,-8.571 60.94,-27.493 26.61,-38.597 61.81,-97.828 84.12,-129.589 60.92,-86.668 104.72,-108.141 177.66,-108.141 16.31,0 30.05,1.711 37.78,4.293 4.32,3.418 3.42,10.289 -0.86,12 -23.18,1.707 -44.63,11.16 -59.21,24.047 -58.38,48.941 -103.85,117.59 -172.55,228.312 -4.26,6.86 -8.58,15.469 -4.26,20.617 42.91,17.161 107.25,61.782 107.25,143.321 0,60.101 -30.03,98.703 -71.23,120.172 -39.49,21.468 -90.12,25.757 -143.32,25.757 -84.12,0 -143.35,-2.578 -191.42,-6.867 -6.87,-3.445 -6.87,-17.179 -0.87,-21.441 l 27.47,-3.469 c 35.18,-4.269 37.78,-18.871 37.78,-100.41 z m 70.36,386.262 c 0,24.047 2.58,27.469 55.81,27.469 95.28,0 137.32,-64.391 137.32,-132.192 0,-58.39 -19.73,-88.41 -42.91,-106.461 -24.89,-18.859 -57.52,-22.289 -88.41,-22.289 -43.78,0 -56.65,1.711 -59.23,4.27 -2.58,3.441 -2.58,12.891 -2.58,28.34 z m 774.25,-369.973 c 0,81.539 -53.25,131.352 -107.3,164.821 l -68.69,42.91 c -31.74,19.762 -72.94,55.808 -72.94,105.59 0,39.492 18.02,95.25 102.14,95.25 82.41,0 105.59,-55.758 116.72,-96.961 4.29,-5.16 18.02,-2.598 21.45,2.551 0,36.05 -7.71,84.121 -15.43,104.722 -6.86,0 -18.89,1.735 -30.04,5.156 -22.34,6 -53.21,11.133 -79.81,11.133 -111.61,0 -175.1,-66.07 -175.1,-147.609 0,-70.41 49.78,-119.32 92.69,-147.633 l 81.52,-53.207 c 62.67,-40.363 70.41,-82.41 70.41,-120.191 0,-51.493 -35.21,-98.7 -107.3,-98.7 -99.59,0 -134.77,84.118 -147.66,127.879 -3.42,5.18 -16.31,3.469 -20.58,-2.55 1.71,-40.36 12.89,-101.282 23.18,-120.188 16.32,-9.453 61.78,-31.762 133.9,-31.762 111.57,0 182.84,64.379 182.84,158.789 m 180.24,-14.578 c 0,-90.98 -1.71,-102.98 -52.36,-109.011 l -21.47,-2.551 c -5.13,-5.16 -3.42,-18.918 1.71,-21.469 42.94,1.711 72.12,2.551 108.14,2.551 34.34,0 63.54,-0.84 106.46,-2.551 5.15,2.551 6.87,18.02 1.71,21.469 l -21.45,2.551 c -50.67,6.031 -52.38,18.031 -52.38,109.011 V 602.09 c 0,90.992 1.71,105.59 52.38,109.879 l 21.45,1.73 c 5.16,3.426 3.44,18.871 -1.71,21.449 -42.92,-1.71 -72.12,-2.578 -106.46,-2.578 -36.02,0 -65.2,0.868 -108.14,2.578 -5.13,-2.578 -6.84,-18.023 -1.71,-21.449 l 21.47,-1.73 c 50.65,-4.289 52.36,-18.887 52.36,-109.879 z m 521.84,380.239 c 0,28.359 -0.84,29.199 24.92,29.199 h 60.94 c 47.2,0 79.83,-6.867 99.58,-21.469 12.87,-9.449 18.82,-41.199 21.43,-62.648 4.26,-5.161 18.91,-5.161 22.33,1.707 -2.58,25.761 3.42,95.277 12.89,130.457 -1.76,3.445 -11.2,4.316 -15.47,2.601 -12.89,-22.336 -20.6,-24.047 -66.96,-24.047 h -347.6 c -39.5,0 -67.81,-0.843 -72.99,26.602 -2.56,2.578 -13.74,1.711 -16.29,0 -6,-34.336 -18.89,-89.274 -32.63,-127.871 3.45,-6.871 15.45,-11.18 22.32,-6.031 9.44,21.468 18.02,40.359 38.65,59.23 21.44,19.762 68.65,21.469 105.56,21.469 h 47.2 c 25.76,0 25.76,-0.84 25.76,-27.489 V 294.82 c 0,-90.121 -4.31,-103.011 -53.2,-107.3 l -30.92,-2.551 c -6.86,-4.309 -5.15,-18.918 0,-21.469 54.92,1.711 84.97,2.551 119.3,2.551 34.34,0 63.52,-0.84 112.41,-2.551 5.18,2.551 6.87,18.02 1.76,21.469 l -27.47,2.551 c -49.78,4.289 -51.52,17.179 -51.52,107.3 z M 6851.6,294.82 c 0,-90.121 -4.33,-103.011 -53.22,-107.3 l -28.36,-2.551 c -5.11,-5.16 -3.43,-18.918 1.75,-21.469 50.63,1.711 79.83,2.551 116.75,2.551 h 77.25 c 76.38,0 152.74,-0.84 229.97,-2.551 11.21,23.18 32.65,89.27 38.67,119.301 -3.44,7.73 -15.49,10.289 -21.51,6.019 -22.27,-44.648 -45.45,-74.699 -60.87,-83.269 -18.89,-9.449 -43.83,-12.891 -109.88,-12.891 -75.56,0 -93.61,9.461 -103.92,19.75 -13.71,14.61 -16.24,43.789 -16.24,89.25 v 121.059 c 0,22.32 2.53,23.179 28.29,23.179 h 49.8 c 33.47,0 54.07,-0.859 66.1,-4.308 17.15,-4.289 23.18,-17.16 26.62,-32.629 l 7.69,-33.473 c 4.29,-5.129 18.92,-5.129 22.36,0.871 0,18.891 -3.44,51.493 -3.44,82.391 0,32.621 3.44,66.09 3.44,86.719 -3.44,6 -18.07,6 -22.36,0.82 l -6.84,-35.18 c -4.29,-21.449 -10.32,-26.609 -20.61,-30.027 -10.28,-3.441 -36.91,-5.152 -72.96,-5.152 h -49.8 c -25.76,0 -28.29,0 -28.29,24.019 v 171.66 c 0,32.653 0,34.36 25.71,34.36 h 61.83 c 37.76,0 65.2,-0.84 83.27,-5.16 44.6,-11.149 52.32,-41.2 65.21,-81.539 4.33,-5.149 18.04,-3.438 21.42,1.742 -3.38,37.726 -8.56,99.535 -13.66,114.136 -10.29,-2.578 -60.99,-2.578 -115.91,-2.578 h -161.34 c -35.23,0 -64.43,0.868 -101.28,2.578 -5.18,-2.578 -6.86,-18.023 -1.75,-21.449 l 13.73,-1.73 c 50.65,-6 52.38,-18.887 52.38,-108.168 z m 732.98,381.95 c 0,28.359 -0.85,29.199 24.91,29.199 h 60.94 c 47.2,0 79.83,-6.867 99.59,-21.469 12.86,-9.449 18.89,-41.199 21.49,-62.648 4.27,-5.161 18.84,-5.161 22.27,1.707 -2.58,25.761 3.44,95.277 12.89,130.457 -1.76,3.445 -11.21,4.316 -15.47,2.601 -12.82,-22.336 -20.6,-24.047 -66.96,-24.047 h -347.56 c -39.52,0 -67.88,-0.843 -73.06,26.602 -2.51,2.578 -13.71,1.711 -16.24,0 -6.03,-34.336 -18.92,-89.274 -32.63,-127.871 3.42,-6.871 15.47,-11.18 22.34,-6.031 9.37,21.468 18,40.359 38.58,59.23 21.49,19.762 68.69,21.469 105.61,21.469 h 47.2 c 25.76,0 25.76,-0.84 25.76,-27.489 V 294.82 c 0,-90.121 -4.34,-103.011 -53.2,-107.3 l -30.97,-2.551 c -6.79,-4.309 -5.11,-18.918 0,-21.469 54.99,1.711 85.01,2.551 119.35,2.551 34.31,0 63.52,-0.84 112.46,-2.551 5.1,2.551 6.86,18.02 1.68,21.469 l -27.44,2.551 c -49.81,4.289 -51.54,17.179 -51.54,107.3 v 381.95" /><path
         id="path16"
         style="fill:#ffffff;fill-opacity:1;fill-rule:nonzero;stroke:none"
         d="m 856.977,1713.95 c 473.293,0 856.973,-383.68 856.973,-856.973 C 1713.95,383.68 1330.27,0 856.977,0 383.68,0 0,383.68 0,856.977 0,1330.27 383.68,1713.95 856.977,1713.95" /><path
         id="path18"
         style="fill:#ffffff;fill-opacity:1;fill-rule:nonzero;stroke:none"
         d="m 841.711,774.043 c -4.164,-0.863 -8.121,1.219 -8.91,4.762 -0.785,3.527 1.949,7.117 6.113,8.039 4.149,0.902 8.133,-1.211 8.899,-4.739 0.796,-3.55 -1.969,-7.132 -6.102,-8.062 z M 775.25,891.785 c 12.219,-0.93 14.281,-4.035 15.512,-7.383 1.242,-3.375 0.347,-5.929 -7.848,-21.179 -0.629,-1.207 2.617,-2.715 3.356,-1.864 41.152,47.645 107.531,26.68 121.132,21.625 15.567,-5.8 12.942,-13.777 10.575,-16.504 -9.528,-10.929 -44.614,-31.003 -51.946,-34 -7.281,-2.992 -9.758,-2.546 -14.258,2.036 -4.492,4.566 -8,18.683 -8.535,20.355 -0.515,1.684 0.157,15.328 -0.035,16.828 -0.168,1.508 -3.629,1.77 -4.035,0.348 -0.453,-1.41 -3.152,-11.977 -3.77,-13.645 -0.628,-1.679 -2.718,-3.082 -4.5,-2.839 -1.753,0.281 -18.195,5.453 -19.347,5.742 -1.156,0.215 -2.379,-2.598 -1.496,-3.375 0.886,-0.778 17.593,-11.34 21.011,-13.528 3.446,-2.207 5.887,-8.207 7.133,-15.324 0.367,-2.348 -0.511,-5.91 -4.676,-6.789 -4.171,-0.883 -21.55,4.266 -25.332,5.723 -3.785,1.465 -7.386,10.89 -7.968,12.523 -0.575,1.656 -4.282,1.067 -4.364,-0.867 -0.078,-1.383 0.395,-9.234 -0.675,-11.543 -1.52,-3.344 -7.778,-5.937 -17.758,-7.195 -1.711,-0.219 -1.469,-4.711 0.34,-4.739 8.668,-0.128 11.285,-3.859 12,-6.336 0.691,-2.488 -0.063,-3.132 -4.61,-14.625 -0.902,-2.191 3.227,-3.441 4.043,-2.5 12.918,14.84 23.34,18.219 40.973,17.59 3.773,-0.117 5.43,-0.511 3.816,-2.683 -5.383,-7.371 -19.855,-24.907 -55.894,-58.989 -2.918,-2.753 -3.317,-7.058 -1.219,-10.015 0.555,-0.797 10.18,-14.508 10.813,-15.406 0.617,-0.891 1.941,-1.414 3.375,-0.786 30.597,13.122 51.027,18.95 51.027,18.95 17.644,-29.551 31.543,-48.411 43.148,-45.071 11.629,3.301 15.621,20.086 15.621,20.086 0,0 8.442,-12.687 21.079,-16.965 1.203,-0.421 1.73,0.469 1.73,1.438 0,1.652 0,89.199 0,89.199 0,0 -34.578,0 -35.871,0 -1.293,0 -2.145,0.274 -3.176,0.949 -26.738,17.879 -30.48,20.793 -23.207,24.586 1.762,0.785 3.461,1.543 5.145,2.321 44.5,20.285 69.742,39.421 69.742,53.027 0,14.644 -15.504,40.422 -31.375,52.484 -0.918,0.696 -3.36,-2.285 -2.731,-3.004 0.618,-0.687 10.922,-14.984 8.098,-19.648 -2.809,-4.691 -20.609,0.707 -27.145,4.418 -6.523,3.691 -14.062,19.16 -18.128,25.402 -4.059,6.278 -11.407,11.524 -12.274,11.965 -0.891,0.449 -2.922,-2.109 -2.031,-2.988 3.887,-3.879 13.746,-20.211 9.863,-27.422 -3.89,-7.23 -19.308,-8.297 -25.91,-2.016 -6.605,6.243 -14.73,28.032 -15.348,29.508 -0.621,1.508 -4.047,0.195 -3.867,-0.765 0.387,-2.227 2.988,-16.165 -3.441,-20.379 -6.449,-4.243 -19.317,1.324 -26.274,5.023 -1.437,0.754 -3.789,-1.863 -2.824,-2.644 0.977,-0.793 14.82,-13.672 14.82,-16.676 0,-2.985 -7.937,-5.012 -22.66,-8.731 -1.39,-0.324 -0.972,-3.593 0.176,-3.703" /><path
         id="path20"
         style="fill:#ffffff;fill-opacity:1;fill-rule:nonzero;stroke:none"
         d="m 659.5,774.043 c -4.168,-0.863 -8.16,1.219 -8.922,4.762 -0.789,3.527 1.945,7.117 6.098,8.039 4.144,0.902 8.137,-1.211 8.914,-4.739 0.765,-3.55 -1.969,-7.132 -6.09,-8.062 z m -66.484,117.742 c 12.234,-0.93 14.285,-4.035 15.523,-7.383 1.234,-3.375 0.356,-5.929 -7.844,-21.179 -0.636,-1.207 2.614,-2.715 3.348,-1.864 41.164,47.645 107.527,26.68 121.129,21.625 15.586,-5.8 12.949,-13.777 10.566,-16.504 -9.511,-10.929 -44.601,-31.003 -51.922,-34 -7.304,-2.992 -9.785,-2.546 -14.273,2.036 -4.492,4.566 -8,18.683 -8.539,20.355 -0.5,1.684 0.164,15.328 -0.031,16.828 -0.153,1.508 -3.621,1.77 -4.043,0.348 -0.446,-1.41 -3.137,-11.977 -3.762,-13.645 -0.621,-1.679 -2.723,-3.082 -4.492,-2.839 -1.77,0.281 -18.203,5.453 -19.336,5.742 -1.16,0.215 -2.379,-2.598 -1.504,-3.375 0.891,-0.778 17.562,-11.34 21.004,-13.528 3.445,-2.207 5.887,-8.207 7.117,-15.324 0.395,-2.348 -0.492,-5.91 -4.656,-6.789 -4.184,-0.883 -21.555,4.266 -25.348,5.723 -3.781,1.465 -7.379,10.89 -7.961,12.523 -0.566,1.656 -4.265,1.067 -4.355,-0.867 -0.067,-1.383 0.375,-9.234 -0.699,-11.543 -1.508,-3.344 -7.758,-5.937 -17.743,-7.195 -1.707,-0.219 -1.445,-4.711 0.352,-4.739 8.664,-0.128 11.262,-3.859 11.984,-6.336 0.699,-2.488 -0.031,-3.132 -4.613,-14.625 -0.891,-2.191 3.23,-3.441 4.055,-2.5 12.925,14.84 23.336,18.219 40.961,17.59 3.781,-0.117 5.445,-0.511 3.839,-2.683 -5.394,-7.371 -19.863,-24.907 -55.902,-58.989 -2.922,-2.753 -3.312,-7.058 -1.23,-10.015 0.566,-0.797 10.187,-14.508 10.82,-15.406 0.605,-0.891 1.937,-1.414 3.355,-0.786 30.61,13.122 51.028,18.95 51.028,18.95 17.668,-29.551 31.562,-48.411 43.183,-45.071 11.606,3.301 15.602,20.086 15.602,20.086 0,0 8.426,-12.687 21.074,-16.965 1.199,-0.421 1.738,0.469 1.738,1.438 0,1.652 0,89.199 0,89.199 0,0 -34.558,0 -35.863,0 -1.293,0 -2.148,0.274 -3.183,0.949 -26.743,17.879 -30.473,20.793 -23.196,24.586 1.735,0.785 3.457,1.543 5.141,2.321 44.512,20.285 69.734,39.421 69.734,53.027 0,14.644 -15.519,40.422 -31.367,52.484 -0.914,0.696 -3.355,-2.285 -2.746,-3.004 0.613,-0.687 10.93,-14.984 8.098,-19.648 -2.793,-4.691 -20.606,0.707 -27.133,4.418 -6.528,3.691 -14.074,19.16 -18.141,25.402 -4.047,6.278 -11.39,11.524 -12.269,11.965 -0.879,0.449 -2.911,-2.109 -2.028,-2.988 3.856,-3.879 13.758,-20.211 9.871,-27.422 -3.886,-7.23 -19.316,-8.297 -25.937,-2.016 -6.598,6.243 -14.711,28.032 -15.332,29.508 -0.613,1.508 -4.039,0.195 -3.86,-0.765 0.387,-2.227 2.989,-16.165 -3.441,-20.379 -6.441,-4.243 -19.312,1.324 -26.285,5.023 -1.434,0.754 -3.774,-1.863 -2.809,-2.644 0.953,-0.793 14.801,-13.672 14.801,-16.676 0,-2.985 -7.922,-5.012 -22.644,-8.731 -1.403,-0.324 -0.973,-3.593 0.164,-3.703" /><path
         id="path22"
         style="fill:#ffffff;fill-opacity:1;fill-rule:nonzero;stroke:none"
         d="m 1023.93,774.043 c -4.17,-0.863 -8.11,1.219 -8.9,4.762 -0.77,3.527 1.95,7.117 6.1,8.039 4.14,0.902 8.14,-1.211 8.9,-4.739 0.78,-3.55 -1.94,-7.132 -6.1,-8.062 z m -66.469,117.742 c 12.246,-0.93 14.281,-4.035 15.551,-7.383 1.234,-3.375 0.332,-5.929 -7.864,-21.179 -0.64,-1.207 2.61,-2.715 3.34,-1.864 41.162,47.645 107.542,26.68 121.132,21.625 15.61,-5.8 12.93,-13.777 10.57,-16.504 -9.52,-10.929 -44.61,-31.003 -51.91,-34 -7.33,-2.992 -9.79,-2.546 -14.3,2.036 -4.49,4.566 -7.99,18.683 -8.51,20.355 -0.54,1.684 0.13,15.328 -0.04,16.828 -0.16,1.508 -3.6,1.77 -4.05,0.348 -0.45,-1.41 -3.13,-11.977 -3.77,-13.645 -0.61,-1.679 -2.72,-3.082 -4.49,-2.839 -1.77,0.281 -18.186,5.453 -19.331,5.742 -1.148,0.215 -2.387,-2.598 -1.508,-3.375 0.891,-0.778 17.589,-11.34 21.029,-13.528 3.43,-2.207 5.85,-8.207 7.09,-15.324 0.4,-2.348 -0.48,-5.91 -4.67,-6.789 -4.16,-0.883 -21.531,4.266 -25.304,5.723 -3.793,1.465 -7.403,10.89 -7.961,12.523 -0.582,1.656 -4.297,1.067 -4.387,-0.867 -0.07,-1.383 0.402,-9.234 -0.668,-11.543 -1.527,-3.344 -7.769,-5.937 -17.765,-7.195 -1.711,-0.219 -1.473,-4.711 0.355,-4.739 8.68,-0.128 11.281,-3.859 11.996,-6.336 0.684,-2.488 -0.047,-3.132 -4.625,-14.625 -0.891,-2.191 3.231,-3.441 4.035,-2.5 12.946,14.84 23.34,18.219 40.974,17.59 3.79,-0.117 5.44,-0.511 3.83,-2.683 -5.37,-7.371 -19.858,-24.907 -55.894,-58.989 -2.91,-2.753 -3.308,-7.058 -1.207,-10.015 0.536,-0.797 10.18,-14.508 10.809,-15.406 0.605,-0.891 1.93,-1.414 3.359,-0.786 30.593,13.122 51.023,18.95 51.023,18.95 17.67,-29.551 31.57,-48.411 43.17,-45.071 11.62,3.301 15.62,20.086 15.62,20.086 0,0 8.42,-12.687 21.07,-16.965 1.2,-0.421 1.74,0.469 1.74,1.438 0,1.652 0,89.199 0,89.199 0,0 -34.58,0 -35.87,0 -1.3,0 -2.15,0.274 -3.16,0.949 -26.76,17.879 -30.5,20.793 -23.21,24.586 1.73,0.785 3.45,1.543 5.14,2.321 44.51,20.285 69.73,39.421 69.73,53.027 0,14.644 -15.52,40.422 -31.38,52.484 -0.91,0.696 -3.34,-2.285 -2.72,-3.004 0.6,-0.687 10.93,-14.984 8.1,-19.648 -2.81,-4.691 -20.64,0.707 -27.15,4.418 -6.53,3.691 -14.07,19.16 -18.16,25.402 -4.03,6.278 -11.4,11.524 -12.26,11.965 -0.86,0.449 -2.91,-2.109 -2.01,-2.988 3.85,-3.879 13.76,-20.211 9.85,-27.422 -3.86,-7.23 -19.28,-8.297 -25.9,-2.016 -6.62,6.243 -14.75,28.032 -15.33,29.508 -0.65,1.508 -4.07,0.195 -3.91,-0.765 0.418,-2.227 3.02,-16.165 -3.414,-20.379 -6.445,-4.243 -19.324,1.324 -26.289,5.023 -1.422,0.754 -3.766,-1.863 -2.809,-2.644 0.954,-0.793 14.813,-13.672 14.813,-16.676 0,-2.985 -7.938,-5.012 -22.66,-8.731 -1.403,-0.324 -0.969,-3.593 0.16,-3.703" /><path
         id="path24"
         style="fill:#231f20;fill-opacity:1;fill-rule:nonzero;stroke:none"
         d="m 592.852,895.488 c 14.722,3.719 22.644,5.746 22.644,8.731 0,3.004 -13.848,15.883 -14.801,16.676 -0.965,0.781 1.375,3.398 2.809,2.644 6.973,-3.699 19.844,-9.266 26.285,-5.023 6.43,4.214 3.828,18.152 3.441,20.379 -0.179,0.96 3.247,2.273 3.86,0.765 0.621,-1.476 8.734,-23.265 15.332,-29.508 6.621,-6.281 22.051,-5.214 25.937,2.016 3.887,7.211 -6.015,23.543 -9.871,27.422 -0.883,0.879 1.149,3.437 2.028,2.988 0.879,-0.441 8.222,-5.687 12.269,-11.965 4.067,-6.242 11.613,-21.711 18.141,-25.402 6.527,-3.711 24.34,-9.109 27.133,-4.418 2.832,4.664 -7.485,18.961 -8.098,19.648 -0.609,0.719 1.832,3.7 2.746,3.004 15.848,-12.062 31.367,-37.84 31.367,-52.484 0,-13.606 -25.222,-32.742 -69.734,-53.027 -1.684,-0.778 -3.406,-1.536 -5.141,-2.321 -7.277,-3.793 -3.547,-6.707 23.196,-24.586 1.035,-0.675 1.89,-0.949 3.183,-0.949 1.305,0 35.863,0 35.863,0 0,0 0,-87.547 0,-89.199 0,-0.969 -0.539,-1.859 -1.738,-1.438 -12.648,4.278 -21.074,16.965 -21.074,16.965 0,0 -3.996,-16.785 -15.602,-20.086 -11.621,-3.34 -25.515,15.52 -43.183,45.071 0,0 -20.418,-5.828 -51.028,-18.95 -1.418,-0.628 -2.75,-0.105 -3.355,0.786 -0.633,0.898 -10.254,14.609 -10.82,15.406 -2.082,2.957 -1.692,7.262 1.23,10.015 36.039,34.082 50.508,51.618 55.902,58.989 1.606,2.172 -0.058,2.566 -3.839,2.683 -17.625,0.629 -28.036,-2.75 -40.961,-17.59 -0.825,-0.941 -4.946,0.309 -4.055,2.5 4.582,11.493 5.312,12.137 4.613,14.625 -0.722,2.477 -3.32,6.208 -11.984,6.336 -1.797,0.028 -2.059,4.52 -0.352,4.739 9.985,1.258 16.235,3.851 17.743,7.195 1.074,2.309 0.632,10.16 0.699,11.543 0.09,1.934 3.789,2.523 4.355,0.867 0.582,-1.633 4.18,-11.058 7.961,-12.523 3.793,-1.457 21.164,-6.606 25.348,-5.723 4.164,0.879 5.051,4.441 4.656,6.789 -1.23,7.117 -3.672,13.117 -7.117,15.324 -3.442,2.188 -20.113,12.75 -21.004,13.528 -0.875,0.777 0.344,3.59 1.504,3.375 1.133,-0.289 17.566,-5.461 19.336,-5.742 1.769,-0.243 3.871,1.16 4.492,2.839 0.625,1.668 3.316,12.235 3.762,13.645 0.422,1.422 3.89,1.16 4.043,-0.348 0.195,-1.5 -0.469,-15.144 0.031,-16.828 0.539,-1.672 4.047,-15.789 8.539,-20.355 4.488,-4.582 6.969,-5.028 14.273,-2.036 7.321,2.997 42.411,23.071 51.922,34 2.383,2.727 5.02,10.704 -10.566,16.504 -13.602,5.055 -79.965,26.02 -121.129,-21.625 -0.734,-0.851 -3.984,0.657 -3.348,1.864 8.2,15.25 9.078,17.804 7.844,21.179 -1.238,3.348 -3.289,6.453 -15.523,7.383 -1.137,0.11 -1.567,3.379 -0.164,3.703 z m 182.222,0 c 14.723,3.719 22.66,5.746 22.66,8.731 0,3.004 -13.843,15.883 -14.82,16.676 -0.965,0.781 1.387,3.398 2.824,2.644 6.957,-3.699 19.825,-9.266 26.274,-5.023 6.429,4.214 3.828,18.152 3.441,20.379 -0.18,0.96 3.246,2.273 3.867,0.765 0.618,-1.476 8.743,-23.265 15.348,-29.508 6.602,-6.281 22.02,-5.214 25.91,2.016 3.883,7.211 -5.976,23.543 -9.863,27.422 -0.891,0.879 1.14,3.437 2.031,2.988 0.867,-0.441 8.215,-5.687 12.274,-11.965 4.066,-6.242 11.605,-21.711 18.128,-25.402 6.536,-3.711 24.336,-9.109 27.145,-4.418 2.824,4.664 -7.48,18.961 -8.098,19.648 -0.629,0.719 1.813,3.7 2.731,3.004 15.871,-12.062 31.375,-37.84 31.375,-52.484 0,-13.606 -25.242,-32.742 -69.742,-53.027 -1.684,-0.778 -3.383,-1.536 -5.145,-2.321 -7.273,-3.793 -3.531,-6.707 23.207,-24.586 1.031,-0.675 1.883,-0.949 3.176,-0.949 1.293,0 35.871,0 35.871,0 0,0 0,-87.547 0,-89.199 0,-0.969 -0.527,-1.859 -1.73,-1.438 -12.637,4.278 -21.079,16.965 -21.079,16.965 0,0 -3.992,-16.785 -15.621,-20.086 -11.605,-3.34 -25.504,15.52 -43.148,45.071 0,0 -20.43,-5.828 -51.027,-18.95 -1.434,-0.628 -2.758,-0.105 -3.375,0.786 -0.633,0.898 -10.258,14.609 -10.813,15.406 -2.098,2.957 -1.699,7.262 1.219,10.015 36.039,34.082 50.511,51.618 55.894,58.989 1.614,2.172 -0.043,2.566 -3.816,2.683 -17.633,0.629 -28.055,-2.75 -40.973,-17.59 -0.816,-0.941 -4.945,0.309 -4.043,2.5 4.547,11.493 5.301,12.137 4.61,14.625 -0.715,2.477 -3.332,6.208 -12,6.336 -1.809,0.028 -2.051,4.52 -0.34,4.739 9.98,1.258 16.238,3.851 17.758,7.195 1.07,2.309 0.597,10.16 0.675,11.543 0.082,1.934 3.789,2.523 4.364,0.867 0.582,-1.633 4.183,-11.058 7.968,-12.523 3.782,-1.457 21.161,-6.606 25.332,-5.723 4.165,0.879 5.043,4.441 4.676,6.789 -1.246,7.117 -3.687,13.117 -7.133,15.324 -3.418,2.188 -20.125,12.75 -21.011,13.528 -0.883,0.777 0.34,3.59 1.496,3.375 1.152,-0.289 17.594,-5.461 19.347,-5.742 1.782,-0.243 3.872,1.16 4.5,2.839 0.618,1.668 3.317,12.235 3.77,13.645 0.406,1.422 3.867,1.16 4.035,-0.348 0.192,-1.5 -0.48,-15.144 0.035,-16.828 0.535,-1.672 4.043,-15.789 8.535,-20.355 4.5,-4.582 6.977,-5.028 14.258,-2.036 7.332,2.997 42.418,23.071 51.946,34 2.367,2.727 4.992,10.704 -10.575,16.504 -13.601,5.055 -79.98,26.02 -121.132,-21.625 -0.739,-0.851 -3.985,0.657 -3.356,1.864 8.195,15.25 9.09,17.804 7.848,21.179 -1.231,3.348 -3.293,6.453 -15.512,7.383 -1.148,0.11 -1.566,3.379 -0.176,3.703 z m 182.227,0 c 14.722,3.719 22.66,5.746 22.66,8.731 0,3.004 -13.859,15.883 -14.813,16.676 -0.957,0.781 1.387,3.398 2.809,2.644 6.965,-3.699 19.844,-9.266 26.289,-5.023 6.434,4.214 3.832,18.152 3.414,20.379 -0.16,0.96 3.26,2.273 3.91,0.765 0.58,-1.476 8.71,-23.265 15.33,-29.508 6.62,-6.281 22.04,-5.214 25.9,2.016 3.91,7.211 -6,23.543 -9.85,27.422 -0.9,0.879 1.15,3.437 2.01,2.988 0.86,-0.441 8.23,-5.687 12.26,-11.965 4.09,-6.242 11.63,-21.711 18.16,-25.402 6.51,-3.711 24.34,-9.109 27.15,-4.418 2.83,4.664 -7.5,18.961 -8.1,19.648 -0.62,0.719 1.81,3.7 2.72,3.004 15.86,-12.062 31.38,-37.84 31.38,-52.484 0,-13.606 -25.22,-32.742 -69.73,-53.027 -1.69,-0.778 -3.41,-1.536 -5.14,-2.321 -7.29,-3.793 -3.55,-6.707 23.21,-24.586 1.01,-0.675 1.86,-0.949 3.16,-0.949 1.29,0 35.87,0 35.87,0 0,0 0,-87.547 0,-89.199 0,-0.969 -0.54,-1.859 -1.74,-1.438 -12.65,4.278 -21.07,16.965 -21.07,16.965 0,0 -4,-16.785 -15.62,-20.086 -11.6,-3.34 -25.5,15.52 -43.17,45.071 0,0 -20.43,-5.828 -51.023,-18.95 -1.429,-0.628 -2.754,-0.105 -3.359,0.786 -0.629,0.898 -10.273,14.609 -10.809,15.406 -2.101,2.957 -1.703,7.262 1.207,10.015 36.036,34.082 50.524,51.618 55.894,58.989 1.61,2.172 -0.04,2.566 -3.83,2.683 -17.634,0.629 -28.028,-2.75 -40.974,-17.59 -0.804,-0.941 -4.926,0.309 -4.035,2.5 4.578,11.493 5.309,12.137 4.625,14.625 -0.715,2.477 -3.316,6.208 -11.996,6.336 -1.828,0.028 -2.066,4.52 -0.355,4.739 9.996,1.258 16.238,3.851 17.765,7.195 1.07,2.309 0.598,10.16 0.668,11.543 0.09,1.934 3.805,2.523 4.387,0.867 0.558,-1.633 4.168,-11.058 7.961,-12.523 3.773,-1.457 21.144,-6.606 25.304,-5.723 4.19,0.879 5.07,4.441 4.67,6.789 -1.24,7.117 -3.66,13.117 -7.09,15.324 -3.44,2.188 -20.138,12.75 -21.029,13.528 -0.879,0.777 0.36,3.59 1.508,3.375 1.145,-0.289 17.561,-5.461 19.331,-5.742 1.77,-0.243 3.88,1.16 4.49,2.839 0.64,1.668 3.32,12.235 3.77,13.645 0.45,1.422 3.89,1.16 4.05,-0.348 0.17,-1.5 -0.5,-15.144 0.04,-16.828 0.52,-1.672 4.02,-15.789 8.51,-20.355 4.51,-4.582 6.97,-5.028 14.3,-2.036 7.3,2.997 42.39,23.071 51.91,34 2.36,2.727 5.04,10.704 -10.57,16.504 -13.59,5.055 -79.97,26.02 -121.132,-21.625 -0.73,-0.851 -3.98,0.657 -3.34,1.864 8.196,15.25 9.098,17.804 7.864,21.179 -1.27,3.348 -3.305,6.453 -15.551,7.383 -1.129,0.11 -1.563,3.379 -0.16,3.703 z M 540.156,568.121 H 1164.4 V 1045.46 H 540.156 V 568.121" /><path
         id="path26"
         style="fill:#231f20;fill-opacity:1;fill-rule:nonzero;stroke:none"
         d="m 656.676,786.844 c -4.153,-0.922 -6.887,-4.512 -6.098,-8.039 0.762,-3.543 4.754,-5.625 8.922,-4.762 4.121,0.93 6.855,4.512 6.09,8.062 -0.777,3.528 -4.77,5.641 -8.914,4.739" /><path
         id="path28"
         style="fill:#231f20;fill-opacity:1;fill-rule:nonzero;stroke:none"
         d="m 838.914,786.844 c -4.164,-0.922 -6.898,-4.512 -6.113,-8.039 0.789,-3.543 4.746,-5.625 8.91,-4.762 4.133,0.93 6.898,4.512 6.102,8.062 -0.766,3.528 -4.75,5.641 -8.899,4.739" /><path
         id="path30"
         style="fill:#231f20;fill-opacity:1;fill-rule:nonzero;stroke:none"
         d="m 1021.13,786.844 c -4.15,-0.922 -6.87,-4.512 -6.1,-8.039 0.79,-3.543 4.73,-5.625 8.9,-4.762 4.16,0.93 6.88,4.512 6.1,8.062 -0.76,3.528 -4.76,5.641 -8.9,4.739" /><path
         id="path32"
         style="fill:#231f20;fill-opacity:1;fill-rule:nonzero;stroke:none"
         d="m 1164.4,1097.4 -311.744,136.28 -312.5,-136.71 v -23.61 H 1164.4 v 24.04" /><path
         id="path34"
         style="fill:#231f20;fill-opacity:1;fill-rule:nonzero;stroke:none"
         d="m 1373.13,1163.92 c 17.01,0 30.85,13.84 30.85,30.85 0,17.01 -13.84,30.85 -30.85,30.85 -17.01,0 -30.85,-13.84 -30.85,-30.85 0,-17.01 13.84,-30.85 30.85,-30.85" /><path
         id="path36"
         style="fill:#231f20;fill-opacity:1;fill-rule:nonzero;stroke:none"
         d="m 334.684,1164.04 c 17.011,0 30.851,13.84 30.851,30.85 0,17.02 -13.84,30.86 -30.851,30.86 -17.008,0 -30.848,-13.84 -30.848,-30.86 0,-17.01 13.84,-30.85 30.848,-30.85" /><path
         id="path38"
         style="fill:#231f20;fill-opacity:1;fill-rule:nonzero;stroke:none"
         d="m 232.289,892.383 30.516,-5.281 c 12.816,-2.204 39.484,-6.793 46.203,-11.227 1.121,-0.656 2.644,-4.051 2.555,-9.086 -0.043,-0.262 -0.043,-0.262 -0.184,-6.57 l -0.012,-0.684 0.246,-0.633 c 0.461,-1.183 1.203,-2.191 6.621,-4.437 l 1.375,-0.567 5.618,2.567 0.5,1.308 c 0.222,0.579 0.402,1.036 2.414,27.504 l 3.773,28.645 -0.082,0.496 c -0.184,1.148 -0.621,2.187 -4.609,5.137 l -1.067,0.789 -6.988,-0.731 -0.895,-1.3 c -0.359,-0.52 -0.847,-1.235 -2.132,-8.071 -1.09,-5.765 -2.907,-7.902 -3.746,-8.23 -2.301,-0.86 -11.684,-2.129 -48.957,4.324 l -28.368,4.906 c -40.683,7.047 -58.695,25.77 -53.531,55.649 2.375,13.73 7.715,23.351 16.32,29.422 11.426,8.047 28.829,9.897 53.188,5.677 l 53.293,-9.22 c 25.18,-4.375 25.148,-4.582 23.656,-15.379 l -0.984,-6.754 0.211,-0.715 c 0.457,-1.547 1.832,-4.238 5.972,-4.883 2.496,-0.355 5.817,0.094 7.668,2.434 l 0.446,0.734 c 0.199,0.453 0.347,0.781 6.523,31.582 l 7.848,31.301 -0.133,0.72 c -0.5,2.82 -2.59,4.91 -5.692,5.75 -2.972,0.83 -5.781,0.26 -7.507,-1.53 l -0.512,-0.69 c -0.191,-0.34 -0.406,-0.72 -2.398,-7.16 -3.168,-10.07 -3.493,-11.13 -30.094,-6.53 l -58.25,10.08 c -30.602,5.31 -50.711,2.18 -65.133,-10.1 -11.68,-9.67 -19.438,-25.294 -23.059,-46.419 -3.5,-20.09 0.602,-40.668 10.668,-53.68 11.133,-14.699 30.34,-24.234 58.719,-29.148" /><path
         id="path40"
         style="fill:#231f20;fill-opacity:1;fill-rule:nonzero;stroke:none"
         d="m 349.063,640.469 c 0.835,-0.559 3.328,-3.149 6.808,-9.809 l 2.051,-4.019 0.738,-0.493 c 2.59,-1.718 5.668,-2.007 8.367,-0.757 2.293,0.98 3.926,2.839 4.469,5.109 l 0.129,0.551 -0.051,0.558 c -0.051,0.582 -0.094,1.051 -9.414,25.813 l -9.047,28.449 -0.492,0.969 c -1.664,2.308 -4.328,3.41 -7.375,2.969 -3.004,-0.45 -5.496,-2.258 -6.5,-4.719 l -0.242,-1 c -0.043,-0.461 -0.098,-1.09 0.926,-5.77 2.121,-9.941 1.472,-12.09 1.297,-12.41 -0.832,-0.98 -6.969,-6.351 -46.063,-16.82 l -51.949,-13.942 c -0.332,-0.089 -0.684,-0.179 -1.047,-0.277 4.809,7.027 13.184,20.051 28.586,44.078 l 0.012,0.02 c 0.718,1.101 20.039,30.48 20.039,30.48 l 3.019,4.516 c 7.903,11.824 28.895,43.226 38.418,49.918 l 1.305,1.008 0.148,1.578 c 0.051,0.558 0.211,2.265 -2.84,12.738 l -5.187,27.313 -0.566,1.335 c -1.579,2.239 -3.84,3.313 -6.571,3.133 -2.945,-0.207 -5.761,-1.789 -7.172,-4.043 l -0.421,-0.988 c -0.118,-0.465 -0.293,-1.168 0.164,-5.949 0.527,-6 -0.18,-10.867 -1.922,-13.594 -3.438,-4.949 -6.926,-6.301 -14.063,-8.184 l -70.554,-18.683 -4.067,-1.102 c -11.82,-3.218 -36.457,-9.879 -44.031,-9.078 -0.363,0.063 -2.156,1.363 -3.707,6.379 l -2.102,6.266 -0.59,1.078 c -0.777,0.961 -1.785,1.715 -6.941,2.008 l -1.328,0.082 -5.586,-4.563 -0.094,-1.488 c -0.039,-0.645 -0.074,-1.152 6.024,-26.234 l 5.191,-28.313 0.402,-1.094 c 0.532,-0.929 1.368,-1.867 5.68,-3.117 l 1.301,-0.383 5.523,2.821 1.5,1.351 0.375,1.512 c 0.141,1.437 -0.336,6.219 -0.644,9.035 -0.317,2.332 -0.391,4.441 -0.219,6.262 0.25,2.59 0.918,3.41 0.918,3.41 l -0.016,-0.004 c 5.008,4.379 31.063,12.43 47.356,16.77 l 52.722,14.148 c 2.286,0.613 4.348,1.121 6.176,1.523 -7.054,-10.32 -19.902,-29.128 -19.902,-29.128 -0.414,-0.629 -48.828,-73.266 -48.828,-73.266 C 199.16,624.41 193.91,617.281 191.219,614.051 l -0.981,-1.18 0.227,-1.519 c 0.75,-4.993 3.648,-8.133 7.765,-8.391 l 0.723,-0.039 0.684,0.25 c 2.508,0.937 11.215,3.719 41.312,11.777 l 61.735,16.582 c 10.382,2.801 37.754,10.18 46.379,8.938" /><path
         id="path42"
         style="fill:#231f20;fill-opacity:1;fill-rule:nonzero;stroke:none"
         d="m 428.707,518.949 c 2.535,-1.199 5.406,-0.769 7.887,1.18 0.961,0.75 4.015,3.453 3.586,7.012 l -0.242,0.91 c -0.2,0.469 -0.344,0.808 -18.629,26.148 l -17.168,26.442 -0.989,0.988 c -2.437,1.621 -5.515,1.492 -8.449,-0.27 -2.676,-1.609 -4.133,-3.828 -4.101,-6.257 l 0.125,-0.872 c 0.121,-0.441 0.246,-0.878 3.57,-6.71 5.258,-9.258 5.57,-9.809 -16.481,-24.911 L 304.23,492.262 c -21.539,-14.774 -21.82,-14.43 -29.097,-6.121 l -4.828,5.531 -0.992,0.269 c -2.95,0.829 -5.985,0 -8.301,-2.25 -1.926,-1.839 -2.86,-4.109 -2.559,-6.242 l 0.219,-0.808 c 0.203,-0.5 0.336,-0.832 18.898,-26.629 L 294.461,430 l 1.027,-1.012 c 1.129,-0.726 2.383,-1.09 3.703,-1.09 1.508,0 3.106,0.473 4.707,1.411 2.633,1.562 4.129,3.839 4.106,6.242 l -0.133,0.898 c -0.101,0.36 -0.219,0.77 -3.289,6.672 -5.117,9.809 -5.316,10.188 16.203,24.91 l 73.594,50.379 c 22.043,15.102 22.453,14.621 29.164,6.36 l 3.977,-4.891 1.187,-0.93" /><path
         id="path44"
         style="fill:#231f20;fill-opacity:1;fill-rule:nonzero;stroke:none"
         d="m 605.184,373.359 c 2.996,0.231 5.683,2.121 7.195,5.051 l 0.004,0.012 c 1.16,2.269 1.293,4.578 0.371,6.476 l -0.555,0.821 c -0.386,0.429 -0.695,0.761 -21.043,13.57 l -21.301,15.34 -0.8,0.141 c -2.907,0.441 -5.688,-0.629 -7.672,-3 -1.278,-1.532 -2.016,-3.239 -2.137,-5 -0.039,-0.688 0.02,-1.372 0.18,-2.02 l 0.414,-1.012 c 0.234,-0.379 0.594,-0.957 4.336,-4.187 2.812,-2.43 4.117,-4.031 4.695,-4.86 l -5.586,-4.89 -97.703,-55.692 c 5.652,21.75 20.891,80.442 20.891,80.442 4.336,16.109 8.394,28.238 10.242,33.109 1.133,-0.48 3.125,-1.488 6.457,-3.66 l 3.933,-2.48 0.868,-0.059 c 2.898,-0.172 5.433,1.07 7.105,3.559 1.574,2.39 1.992,5.21 1.11,7.531 l -0.434,0.801 c -0.348,0.468 -0.574,0.789 -24.578,20.019 l -20.203,18.059 -0.856,0.199 c -2.914,0.672 -5.621,-0.129 -7.668,-2.27 -1.89,-2.039 -2.726,-4.75 -2.234,-7.257 l 0.308,-0.891 c 0.211,-0.43 0.477,-0.949 3.981,-4.582 5.781,-6.141 6.184,-10.641 2.269,-25.309 L 435.879,336.512 c -2.711,-10.981 -6.609,-22.973 -10.699,-32.903 l -0.305,-0.738 0.055,-0.801 c 0.054,-0.761 0.14,-2.019 3.695,-6.058 l 1.02,-1.153 5.136,-1.66 1.492,1.02 c 12.579,8.562 40.567,25.16 60.5,36.422 l 29.368,16.39 c 25.574,14.258 47.117,24.981 58.687,30.231 5.82,2.5 9.02,1.898 11.988,0.25 l 7.317,-4.231 1.051,0.078" /><path
         id="path46"
         style="fill:#231f20;fill-opacity:1;fill-rule:nonzero;stroke:none"
         d="m 764.109,336.172 c -2.484,0.137 -17.98,4.93 -30.429,8.769 l -0.778,0.239 c -0.207,0.07 -45.168,13.992 -45.168,13.992 v 0 l -28.671,9.68 -0.731,-0.071 c -2.852,-0.269 -5.184,-2.269 -6.387,-5.441 -0.41,-1.051 -1.57,-4.68 0.629,-7.449 l 0.633,-0.61 c 0.277,-0.199 0.652,-0.492 4.703,-2.32 10.098,-4.5 10.492,-4.672 2.86,-29.34 l -26.68,-86.152 c -7.66,-24.758 -8.742,-24.539 -19.008,-22.309 l -9.105,1.942 -0.969,-0.391 c -2.852,-1.141 -4.742,-3.68 -5.188,-6.922 -0.386,-2.648 0.285,-5.019 1.852,-6.5 l 0.746,-0.539 c 0.406,-0.219 0.73,-0.391 33.742,-9.84 l 87.301,-27.851 1.473,1.39 c 6.644,6.27 18.593,23.391 22.875,31.242 l 0.437,0.809 -0.023,0.91 c -0.075,2.981 -1.422,5.379 -3.871,6.942 -2.239,1.468 -4.926,1.886 -7.204,1.168 l -0.808,-0.258 -0.594,-0.614 c -10.375,-10.679 -18.687,-16.207 -22.18,-16.949 -5.437,-0.867 -12.918,0.563 -29.687,5.75 -21.676,6.731 -23.691,10.52 -24.613,12.25 -1.883,3.821 0.004,11.973 3.418,23.012 l 10.445,33.738 c 0.215,0.699 0.488,1.582 0.719,2.18 0.922,-0.188 2.433,-0.66 3.707,-1.051 l 13.863,-4.308 c 8.172,-2.532 14.18,-4.579 17.027,-6.438 2.235,-1.352 2.879,-3.203 2.551,-7.344 l -0.808,-10.738 0.261,-0.699 c 1.012,-2.699 3.406,-4.629 6.586,-5.301 2.695,-0.57 5.211,0 6.891,1.551 l 0.543,0.648 c 0.34,0.52 0.562,0.871 3.047,10.34 l 3.726,14.043 8.711,24.668 -0.121,0.84 c -0.391,2.691 -2.113,4.789 -4.793,5.879 -2.234,0.953 -5.512,1.39 -8.043,-0.239 l -0.676,-0.57 c -0.328,-0.359 -0.609,-0.672 -5.75,-10.238 -2.304,-4.25 -3.168,-4.274 -4.574,-4.313 -1.902,-0.097 -8.109,1.172 -19.43,4.672 -0.468,0.141 -13.836,4.278 -13.836,4.278 -1.39,0.441 -2.82,0.882 -3.652,1.211 0.16,0.66 0.449,1.601 0.715,2.46 l 14.84,47.86 c 0.601,1.969 1.265,4.129 1.754,5.262 0.922,-0.211 2.316,-0.641 2.871,-0.813 l 17.222,-5.32 c 10,-3.098 17.54,-5.688 21.809,-8.207 8.918,-5.41 8.949,-12.09 9.004,-23.153 v -1.449 l 0.207,-1.172 c 0.609,-1.687 2.09,-3.879 5.676,-4.808 1.066,-0.27 4.769,-0.961 7.429,1.218 l 0.719,0.813 c 0.235,0.371 0.672,1.059 1.504,4.937 3.059,14.321 5.57,26.532 5.41,30.813 l -0.148,3.969 -3.981,0.242" /><path
         id="path48"
         style="fill:#231f20;fill-opacity:1;fill-rule:nonzero;stroke:none"
         d="m 928.941,259.09 c -6.023,-5.578 -15.187,-7.129 -22.496,-7.852 -7.89,-0.777 -11.695,-0.636 -13.558,-0.937 -0.196,1.418 -0.387,3.429 -0.508,4.711 l -5.719,58.41 c -0.058,0.648 -0.234,2.629 -0.406,2.687 1.336,0.93 8.75,1.301 11.543,1.442 27.351,1.238 38.086,-14.512 39.16,-29.86 0.93,-13.429 -1.629,-22.531 -8.016,-28.601 z m 86.869,-75.488 -0.5,0.117 -0.51,-0.02 c -6.05,-0.269 -11.98,1.25 -16.171,4.09 -18.668,11.961 -34.84,31.031 -57.383,58.762 -0.086,0.097 -0.16,0.199 -0.226,0.289 7.421,4.281 29.363,19.422 26.589,47.57 -2.171,22.121 -15.808,32.059 -26.804,36.469 -11.801,5 -25.196,4.312 -39.805,3.519 l -4.133,-0.218 c -22.816,-1.168 -40.387,-2.719 -55.281,-4.871 l -1.098,-0.36 c -2.504,-1.308 -3.886,-3.668 -3.886,-6.519 -0.079,-2.348 0.808,-5.711 3.562,-7.5 l 0.734,-0.36 c 0.473,-0.16 0.879,-0.308 9.344,-0.929 6.188,-0.45 7.293,-0.539 9.606,-25.082 l 8.664,-90.258 c 2.429,-24.84 2.429,-24.84 -8.242,-26.719 l -7.321,-1.281 -0.789,-0.86 c -2.097,-2.3 -2.801,-5.269 -1.965,-8.39 0.684,-2.5 2.125,-4.321 4.047,-5.153 l 0.852,-0.238 c 0.086,-0.019 0.164,-0.031 0.39,-0.031 1.118,0 5.746,0.293 31.676,2.281 l 29.664,0.801 1.449,0.371 c 1.344,0.68 3.633,2.398 3.911,6.418 0.164,3.16 -0.938,5.949 -2.942,7.441 l -0.894,0.481 c -0.403,0.137 -0.895,0.316 -6.66,0.84 -11.227,0.949 -11.442,0.968 -14.008,26.91 l -3.086,31.398 c -0.031,0.321 -0.067,0.66 -0.09,0.961 1.375,0.301 4.168,0.571 7.312,0.891 8.536,0.816 11.93,-1.012 15.414,-4.934 l 29.606,-34.316 c 21.137,-23.141 34.723,-29.293 58.784,-26.211 l 11.93,2.949 0.67,0.629 c 1.93,1.84 2.65,4.301 1.95,6.77 -0.64,2.152 -2.27,3.75 -4.36,4.293" /><path
         id="path50"
         style="fill:#231f20;fill-opacity:1;fill-rule:nonzero;stroke:none"
         d="m 1124.83,365.75 v 0 -0.012 z m -1.09,-43.77 -23.54,0.739 c -15.22,0.73 -25.41,5.359 -30.28,13.742 -1.37,2.34 -3.67,7.07 -3.83,12.437 -0.22,8.133 4.51,15.051 14.05,20.602 17.52,10.18 29.23,2.32 38.37,-6.699 l 1.04,-0.699 c 1.63,-0.723 4.2,-1.153 7.16,0.777 1.99,1.312 4.16,3.742 4.3,6.609 l 0.05,0.981 -0.49,0.863 c -5.74,10.227 -15.2,21.68 -20.42,25.949 l -0.84,0.688 -1.08,0.082 c -0.69,0.039 -1.83,0.14 -10.24,-3.012 -7.04,-1.641 -15.83,-5.219 -22.92,-9.359 -13.92,-8.078 -23.6,-18.891 -28.01,-31.239 -4.47,-12.57 -3.13,-25.589 3.89,-37.671 11.43,-19.731 32.73,-24.942 48.59,-25.829 l 28.39,-1.48 c 20.36,-0.973 27.08,-9.711 31.79,-17.84 3.39,-5.812 4.39,-12.269 2.84,-18.172 -1.73,-6.5 -6.52,-12.187 -13.86,-16.461 -16.52,-9.609 -33.58,-6.218 -50.74,10.032 l -0.76,0.55 c -2.14,1.11 -4.53,1.02 -6.68,-0.211 -2.01,-1.097 -4.47,-3.507 -4.79,-6.75 l -0.12,-1.148 0.6,-0.981 c 6.27,-10.179 18.59,-25.058 25.08,-29 l 0.79,-0.48 0.93,-0.012 c 0.28,-0.008 0.56,-0.008 0.86,-0.008 7.72,0 22.49,1.692 40.32,12.09 15.85,9.18 26.23,21.61 30.03,35.95 1.14,4.332 1.65,8.699 1.52,12.992 -0.23,8.168 -2.62,16.207 -7.1,23.886 -10.53,18.141 -28.48,27.321 -54.9,28.082" /><path
         id="path52"
         style="fill:#231f20;fill-opacity:1;fill-rule:nonzero;stroke:none"
         d="m 1337.93,365.539 -0.78,-0.219 c -0.4,-0.148 -0.81,-0.32 -6.28,-4.172 -9.22,-6.488 -9.39,-6.597 -26.84,12.762 l -59.62,66.309 c -17.86,19.883 -17.43,20.351 -10.17,28.082 l 4.91,5.148 0.23,0.762 c 0.47,1.519 0.81,4.527 -2.27,7.668 -1.12,1.101 -4.11,3.5 -7.46,2.57 l -0.68,-0.269 c -0.54,-0.289 -0.83,-0.442 -23.61,-21.981 l -23.92,-20.508 -0.86,-1.109 c -1.25,-2.602 -0.75,-5.633 1.42,-8.352 2.58,-3.109 5.12,-3.46 6.73,-3.21 l 0.81,0.23 c 0.42,0.172 0.86,0.352 6.19,4.41 8.49,6.442 9.01,6.801 26.87,-13.039 l 59.64,-66.293 c 17.44,-19.406 17.15,-19.726 9.85,-28.058 l -4.81,-5.489 -0.14,-1.011 c -0.44,-3.051 0.75,-5.872 3.34,-7.961 1.6,-1.27 3.32,-1.918 4.97,-1.918 0.5,0 0.98,0.05 1.45,0.168 l 0.84,0.332 c 0.5,0.281 0.8,0.449 24.02,22.379 l -0.13,0.14 c 2.45,1.82 8.16,6.731 23.58,19.961 l 0.88,1.141 c 1.21,2.597 0.69,5.617 -1.43,8.277 -1.9,2.402 -4.4,3.59 -6.73,3.25" /><path
         id="path54"
         style="fill:#231f20;fill-opacity:1;fill-rule:nonzero;stroke:none"
         d="m 1474.15,541.359 c -1.22,0.821 -4.33,2.539 -7.44,1.032 l -0.86,-0.61 c -0.26,-0.25 -0.59,-0.562 -5.37,-7.383 -6.3,-8.707 -6.56,-9.039 -28.91,3.774 l -96.75,55.367 c -1.25,0.711 -2.62,1.492 -3.5,2.063 0.39,0.769 0.97,1.769 1.36,2.468 l 8.83,15.41 c 6.33,11.051 12.32,17.872 17.83,20.301 1.13,0.481 5.88,0.399 15.51,-3.679 l 0.81,-0.332 0.86,0.082 c 3.04,0.296 5.6,2.32 6.82,5.32 1.15,2.648 1.03,5.328 -0.36,7.348 l -0.52,0.769 -0.85,0.402 c -6.93,3.25 -23.19,14.547 -30.34,21.661 l -0.82,0.808 -1.13,0.149 c -4.41,0.601 -7.9,-3.661 -8.4,-6.977 l -0.17,-1.152 0.55,-1.02 c 2.85,-5.172 3.02,-5.469 -3.45,-16.738 l -50.4,-88.031 c -6.67,-11.692 -8.72,-13.801 -12.06,-12.641 l -0.88,0.301 -0.91,-0.18 c -4.21,-0.82 -6.56,-6.191 -6.38,-8.73 l 0.1,-1.403 1.05,-0.929 c 4.16,-3.637 18.41,-16.368 27.55,-27.02 l 0.76,-0.879 1.16,-0.238 c 3.16,-0.633 6.05,0.316 8.17,2.609 1.82,1.91 2.68,4.367 2.36,6.739 l -0.41,1.25 -0.49,0.699 c -3.75,5.222 -6.98,9.742 -8.58,16.832 -1.67,7.308 6.1,20.879 9.41,26.679 l 6.84,11.95 c 0.38,0.672 1.04,1.84 1.56,2.64 0.89,-0.441 2.14,-1.172 3.14,-1.738 L 1417,512.719 c 22.49,-12.879 22.03,-13.867 17.65,-23.36 l -3.83,-8.187 -0.32,-1.422 c -0.02,-3.059 1.65,-5.66 4.59,-7.148 1.39,-0.704 2.81,-1.043 4.13,-1.043 1.28,0 2.47,0.32 3.46,0.98 l 0.65,0.551 c 0.36,0.398 0.6,0.66 17.4,31.582 l -0.3,0.16 c 2.15,2.887 6.46,10.039 17.15,27.77 l 0.47,1.359 c 0.33,2.84 -1.09,5.527 -3.9,7.398" /><path
         id="path56"
         style="fill:#231f20;fill-opacity:1;fill-rule:nonzero;stroke:none"
         d="m 1557.13,797.395 c -6.96,5.937 -25.28,15.937 -33.55,19.32 l -0.86,0.344 -0.91,-0.125 c -2.97,-0.422 -5.22,-2.051 -6.52,-4.715 -1.15,-2.379 -1.25,-5.086 -0.26,-7.235 l 0.35,-0.757 0.66,-0.512 c 11.73,-9.145 18.14,-16.785 19.25,-20.18 1.49,-5.242 0.87,-12.844 -2.44,-30.117 -4.3,-22.363 -7.84,-24.723 -9.46,-25.816 -3.61,-2.282 -11.9,-1.313 -23.26,0.867 l -34.16,6.531 -2.71,0.988 c 0.13,1.043 0.41,2.473 0.58,3.379 l 2.76,14.297 c 1.36,7.191 2.85,14.293 4.52,17.641 1.08,2.351 2.84,3.179 6.99,3.304 l 10.04,0.383 1.37,0.34 c 2.56,1.25 4.25,3.836 4.6,7.106 0.28,2.781 -0.56,5.23 -2.29,6.722 l -0.81,0.512 c -0.5,0.226 -0.9,0.41 -10.47,1.812 l -14.44,2.164 -25.45,5.93 -0.81,-0.207 c -1.85,-0.465 -4.28,-1.797 -5.38,-5.488 -0.67,-2.32 -0.71,-5.617 1.2,-7.91 l 0.62,-0.582 c 0.41,-0.301 0.7,-0.512 10.79,-4.567 4.49,-1.859 4.6,-2.691 4.78,-4.054 0.24,-1.965 -0.28,-8.204 -2.51,-19.821 l -2.73,-14.254 c -0.27,-1.437 -0.56,-2.906 -0.81,-3.765 -0.66,0.086 -1.63,0.273 -2.52,0.437 l -49.17,9.481 c -2.27,0.433 -4.42,0.847 -5.43,1.195 0.06,0.707 0.29,1.883 0.49,2.937 l 3.4,17.704 c 1.96,10.226 3.69,17.988 5.73,22.554 4.37,9.414 10.97,10.196 21.87,11.496 l 1.56,0.161 1.17,0.335 c 1.61,0.801 3.64,2.512 4.16,6.114 0.15,1.086 0.48,4.847 -2,7.301 l -0.93,0.652 c -0.4,0.187 -1.13,0.543 -5.17,0.937 -14.5,1.469 -26.87,2.625 -31.12,1.977 l -3.96,-0.629 0.24,-3.98 c 0.15,-2.485 -2.92,-18.469 -5.39,-31.309 l -9.05,-47.098 -6.47,-29.554 0.16,-0.731 c 0.6,-2.808 2.84,-4.898 6.14,-5.738 2.98,-0.762 5.64,-0.231 7.32,1.469 l 0.47,0.578 c 0.22,0.34 0.46,0.742 1.84,5.031 3.33,10.516 3.47,10.93 28.86,6.063 l 88.57,-17.012 c 25.45,-4.903 25.33,-5.992 24.26,-16.403 l -0.94,-9.347 0.52,-0.922 c 1.49,-2.719 4.23,-4.297 7.48,-4.359 0.08,0 0.18,0 0.27,0 2.53,0 4.69,0.929 5.95,2.582 l 0.44,0.777 c 0.19,0.461 0.32,0.781 6.07,34.633 l 18.04,89.824 -1.54,1.309" /><path
         id="path58"
         style="fill:#231f20;fill-opacity:1;fill-rule:nonzero;stroke:none"
         d="m 1385.53,982.176 c -0.2,0.683 -0.44,1.793 -0.66,2.804 l -0.03,-0.007 c -0.24,1.234 -1.04,4.937 -3.75,17.437 -2.69,12.46 -2.8,21.49 -0.3,26.87 0.51,1.12 4.08,4.07 13.91,7.2 l 0.84,0.26 0.6,0.64 c 2.09,2.19 2.69,5.27 1.67,8.42 -0.87,2.75 -2.74,4.71 -5.09,5.37 l -0.92,0.26 -0.92,-0.25 c -7.37,-2.03 -27.12,-4.02 -37.18,-3.29 l -1.12,0.08 -0.94,-0.6 c -1.5,-0.94 -2.5,-2.4 -2.88,-4.23 -0.53,-2.55 0.24,-5.18 1.24,-6.66 l 0.61,-0.89 1.03,-0.39 c 5.48,-2.04 5.93,-2.21 8.7,-15 l 21.49,-99.341 c 2.82,-13.125 2.74,-16.035 -0.45,-17.296 l -0.87,-0.344 -0.58,-0.746 c -2.63,-3.407 -0.82,-9.004 1,-10.797 l 0.99,-0.965 1.38,-0.016 c 11.21,-0.105 27.24,-0.836 38.63,-2.558 l 1.17,-0.18 1.02,0.578 c 2.75,1.547 4.32,4.125 4.43,7.266 0.09,2.633 -0.89,5.062 -2.68,6.66 l -0.63,0.562 -1.58,0.387 c -6.22,1.524 -11.59,2.84 -17.46,7.125 -5.49,4.004 -8.74,16.203 -10.96,26.383 l -2.91,13.5 c -0.16,0.73 -0.43,1.984 -0.58,2.922 0.9,0.226 2.19,0.473 3.38,0.699 l 109.74,20.93 c 25.45,4.844 25.76,3.793 28.6,-6.281 l 2.42,-8.711 0.64,-1.239 c 1.94,-2.383 4.91,-3.304 8.15,-2.504 2.98,0.711 5.15,2.559 5.81,4.938 l 0.12,0.758 c 0.02,0.562 0.03,0.902 -7.26,35.207 l -5.42,32.343 -0.53,1.32 c -1.58,2.39 -4.44,3.5 -7.82,3.08 -3.05,-0.4 -5.33,-1.9 -6.26,-4.09 l -0.22,-0.77 c -0.08,-0.49 -0.15,-0.91 0.64,-9.35 0.92,-10.67 0.95,-11.09 -24.36,-15.91 l -109.8,-20.897 c -1.55,-0.297 -3.14,-0.601 -4.05,-0.687" /><path
         id="path60"
         style="fill:#231f20;fill-opacity:1;fill-rule:nonzero;stroke:none"
         d="m 394.129,1359.85 0.859,0.17 c 0.45,0.16 0.918,0.32 6.36,4.05 9.039,6.09 9.039,6.08 23.132,-13.62 0.575,-0.77 35.278,-47.66 35.278,-47.66 18.344,-25.07 34.98,-36.77 53.883,-37.93 1.3,-0.1 2.605,-0.15 3.918,-0.15 13.636,0 27.867,5.48 44.386,17.04 17.067,11.92 27.391,26.86 29.848,43.18 2.93,18.23 -3.449,38.71 -19.5,62.6 l -15.77,23.49 c -10.875,16.21 -22.347,35.56 -23.5,42.43 -0.203,0.89 1.2,3.85 5.504,6.96 l 4.836,3.51 0.934,1.02 c 0.668,1.12 1.058,2.49 -0.836,7.83 l -0.469,1.31 -5.722,2.8 -1.29,-0.38 c -0.585,-0.18 -1.011,-0.31 -23.253,-14.62 l 0.058,-0.1 c -2.297,-1.17 -8.105,-4.46 -24.496,-13.76 l -0.859,-0.7 c -0.766,-0.85 -1.371,-1.93 -1.035,-6.51 l 0.097,-1.33 5.399,-5.05 1.504,0.12 c 0.613,0.05 1.375,0.11 7.562,3.17 6.395,3.19 8.992,2.36 9.602,2.05 6.05,-3.17 19.843,-23.89 27.254,-35.03 l 18.933,-28.24 c 10.426,-15.52 16.051,-29.29 16.723,-40.93 0.812,-13.97 -5.332,-25.33 -18.77,-34.73 -26.519,-18.54 -48.715,-11.56 -74.261,23.34 l -32.137,43.6 -0.906,1.27 c -14.145,19.73 -14.145,19.73 -6.715,26.93 l 4.308,4.16 0.801,1.19 c 0.621,1.56 1.219,4.67 -1.762,7.98 -2.062,2.3 -4.578,3.38 -6.906,2.92 l -0.894,-0.31 c -0.485,-0.24 -0.829,-0.42 -24.11,-20.31 l -24.203,-18.65 -0.941,-1.12 c -1.325,-2.53 -0.981,-5.71 0.957,-8.54 1.652,-2.36 3.929,-3.62 6.199,-3.45" /><path
         id="path62"
         style="fill:#231f20;fill-opacity:1;fill-rule:nonzero;stroke:none"
         d="m 867.637,1383.96 0.726,0.43 c 1.598,0.93 3.52,2.77 3.621,6.2 0.063,2.33 -0.75,5.52 -3.187,7.46 l -0.973,0.54 c -0.551,0.2 -1.117,0.4 -9.668,0.59 -7.582,0.26 -8.312,2.46 -10.945,14.14 l -22.098,109.36 c -2.925,16.17 -2.183,17.66 9.813,19.93 l 6.047,1.04 0.718,0.62 c 1.965,1.7 2.821,4.32 2.344,7.07 -0.152,1.11 -0.887,4.89 -3.926,6.57 l -1.062,0.37 c -0.609,0.13 -1.027,0.2 -23.172,-2.18 l -23.191,-0.75 0.351,-4.81 c 0.125,-0.97 0.188,-1.99 0.219,-3.01 0.226,-10.51 -4.356,-25.29 -10.828,-46.17 -0.227,-0.75 -16.539,-55.38 -16.539,-55.38 -0.012,-0.04 -5.817,-18.21 -9.145,-28.62 -2.75,4.06 -7.238,10.36 -14.574,20.3 l -41.086,58.47 c -4.961,6.69 -18.141,24.44 -18.84,35.13 l -0.441,5.27 -24.766,-6.74 c -0.906,-0.19 -19.953,-3.91 -19.953,-3.91 l -1.305,-0.55 c -2.25,-1.58 -3.476,-3.99 -3.461,-6.79 0,-2.78 1.09,-5.31 2.911,-6.75 l 1.23,-0.63 c 0.801,-0.21 1.789,-0.25 5.789,0.11 h 0.074 c 12.508,0.88 13.504,0.61 15.391,-12.91 0,-0.22 0,-0.22 6.551,-55.14 l 4.461,-50.77 0.597,-7.75 c 1.262,-15.52 -0.925,-16.35 -9.066,-19.48 l 0.008,-0.02 c -0.797,-0.29 -2.27,-0.88 -5.367,-2.11 l -1.243,-0.86 c -1.797,-1.94 -2.433,-4.4 -1.843,-7.11 0.597,-2.73 2.195,-4.97 4.281,-6.01 l 1.242,-0.34 c 0.074,-0.01 0.145,-0.02 0.231,-0.02 0.867,0 3.449,0.57 26.507,7.21 l 27.442,6.31 1.097,0.47 c 2.344,1.53 3.539,4.12 3.286,7.06 -0.168,2.36 -1.332,5.4 -4.114,6.83 l -1.082,0.35 c -0.586,0.08 -1.156,0.16 -11.215,-1.62 -2.593,-0.48 -4.242,-0.44 -5.019,0.11 -2.36,1.64 -4.031,11.43 -4.817,16.01 l -7.46,55.31 -3.696,32.88 12.383,-18.83 0.184,0.11 c 1.812,-3.02 8.144,-12.2 30.152,-44.13 l 4.32,-6.19 c 7.516,-10.73 20.09,-28.7 25.461,-39.06 l 0.457,-0.68 c 1.864,-2.13 4.664,-2.53 6.567,-2.25 2.644,0.46 4.621,1.86 5.562,3.93 l 0.235,0.71 c 2.41,11.45 9.128,35.24 17.117,60.6 l 20.383,65.73 15.98,-87.04 c 0.84,-5.08 1.441,-8.75 1.504,-11.34 0.078,-3.21 0.098,-4.18 -6.59,-5.37 l -7.059,-1.28 -1.156,-0.43 c -1.058,-0.64 -2.004,-1.57 -2.863,-6.54 l -0.231,-1.32 3.973,-6.13 1.375,-0.3 c 0.688,-0.14 1.098,-0.24 31.258,2.71 l 30.133,1.39" /><path
         id="path64"
         style="fill:#231f20;fill-opacity:1;fill-rule:nonzero;stroke:none"
         d="m 1066.32,1382.89 0.4,0.84 -0.08,0.93 c -0.26,2.99 -1.76,5.32 -4.28,6.72 -2.32,1.33 -5.04,1.6 -7.27,0.73 l -0.78,-0.31 -0.55,-0.62 c -9.82,-11.2 -17.81,-17.16 -21.24,-18.07 -5.41,-1.18 -12.95,-0.12 -29.95,4.19 -21.988,5.55 -24.199,9.23 -25.207,10.91 -2.086,3.74 -0.629,11.98 2.196,23.18 l 8.464,33.72 1.161,2.66 c 1.043,-0.19 2.464,-0.55 3.367,-0.78 l 14.079,-3.55 c 8.34,-2.12 14.47,-3.87 17.37,-5.56 2.28,-1.22 3.02,-3.02 2.92,-7.15 h 0.03 c -0.06,-1.08 -0.12,-3.58 -0.26,-10.04 l -0.01,-0.73 0.28,-0.67 c 1.1,-2.63 3.67,-4.5 6.85,-5 2.66,-0.43 5.15,0.24 6.76,1.83 l 0.68,0.94 c 0.22,0.45 0.4,0.83 2.35,10.28 l 3.01,14.23 7.4,25.08 -0.15,0.82 c -0.52,2.7 -2.37,4.72 -5.2,5.7 -2.29,0.8 -5.57,1.03 -7.96,-0.72 l -0.62,-0.59 c -0.31,-0.38 -0.57,-0.71 -5.21,-10.53 -2.08,-4.37 -2.93,-4.42 -4.34,-4.53 -0.93,-0.07 -5.11,-0.03 -19.61,3.63 l -14.061,3.55 c -1.414,0.36 -2.871,0.73 -3.726,1.02 0.133,0.66 0.375,1.62 0.601,2.5 l 12.336,48.73 c 0.5,2.01 1.02,4.07 1.42,5.17 0.94,-0.15 2.36,-0.52 2.92,-0.66 l 17.48,-4.42 c 10.46,-2.64 17.83,-4.74 22.2,-7.03 9.17,-4.91 9.57,-11.54 10.22,-22.59 l 0.12,-1.57 0.25,-1.04 c 0.97,-2.36 3.05,-3.98 5.93,-4.56 1.08,-0.21 4.79,-0.68 7.31,1.6 l 0.71,0.9 c 0.21,0.38 0.6,1.09 1.24,5.08 2.29,14.39 4.15,26.66 3.76,31 l -0.41,3.94 -3.97,0.02 c -2.55,0 -18.49,4.03 -31.3,7.26 -0.59,0.15 -46.153,11.67 -46.153,11.67 l -29.137,8.15 -0.734,-0.11 c -2.832,-0.45 -5.051,-2.56 -6.067,-5.77 -0.961,-2.91 -0.593,-5.61 1,-7.41 l 0.692,-0.6 c 0.277,-0.19 0.668,-0.44 4.793,-2.04 10.328,-3.96 10.726,-4.11 4.394,-29.17 l -22.086,-87.43 c -6.359,-25.14 -7.437,-24.94 -17.785,-23.28 l -9.23,1.46 -0.946,-0.44 c -2.761,-1.29 -4.515,-3.89 -4.832,-7.21 -0.191,-2.72 0.602,-4.97 2.239,-6.36 l 0.629,-0.42 c 0.507,-0.27 0.816,-0.43 34.386,-8.14 l 21.77,-5.51 c 0.613,-0.16 64.867,-17.17 64.867,-17.17 l 1.95,-0.51 1.39,1.45 c 6.29,6.55 17.34,24.29 21.23,32.4" /><path
         id="path66"
         style="fill:#231f20;fill-opacity:1;fill-rule:nonzero;stroke:none"
         d="m 1179.88,1362.01 c 0.02,0.01 0.04,0.03 0.04,0.03 0.06,0.04 0.06,0.05 42.8,30.14 l 4.42,2.83 -16.06,-52.53 c -0.24,-0.81 -0.44,-1.44 -0.6,-1.93 -0.43,0.27 -0.96,0.63 -1.61,1.09 l -0.2,-0.27 c -2.66,2.29 -9.66,7.2 -27.97,20.06 -0.24,0.16 -0.52,0.36 -0.82,0.58 z m 74.07,79.47 v 0.01 c 2.65,3.76 6.4,5.82 9.97,5.82 1.79,0 3.53,-0.52 5.06,-1.6 4.66,-3.3 5.11,-9.85 1.06,-15.58 -2.25,-3.19 -5.19,-5.25 -8.27,-5.77 -2.41,-0.42 -4.72,0.13 -6.76,1.57 -1.99,1.4 -3.25,3.42 -3.68,5.84 -0.53,3.13 0.39,6.58 2.62,9.71 z m -169.33,-109.77 c 0.36,-0.37 0.79,-0.84 6.44,-4.03 l 15.22,-8.81 21.31,-14.04 1.21,-0.51 c 3.04,-0.6 5.9,0.47 7.87,2.94 1.89,2.36 2.49,5.33 1.54,7.75 l -0.44,0.79 c -0.32,0.43 -0.6,0.8 -7.5,6.02 -1.27,0.95 -1.91,1.56 -2.23,1.93 0.79,1.11 3.9,4.35 15.65,13.34 l 17.11,11.66 c 2.54,1.87 2.53,1.89 6.13,-0.64 l 33.75,-23.71 c 2.37,-1.67 3.67,-2.74 3.84,-3.18 0.08,-0.42 -0.48,-2.17 -0.52,-2.43 -0.15,-0.29 -0.15,-0.29 -8.25,-28.4 -0.85,-2.73 -2.53,-8.1 -3.99,-10.79 -0.74,0.22 -2.08,0.78 -4.02,2.04 l -6.78,4.36 -0.8,0.08 c -2.95,0.34 -5.56,-1 -7.22,-3.58 -1.67,-2.52 -2.01,-5.58 -0.89,-7.96 l 0.47,-0.74 c 0.26,-0.31 0.56,-0.67 5.24,-4.14 l 18.35,-13.95 23.95,-20.17 1.06,-0.1 c 0.25,-0.02 0.5,-0.03 0.74,-0.03 2.56,0 4.89,1.26 6.64,3.67 1.56,2.26 2.07,4.71 1.42,6.89 l -0.38,0.85 c -0.23,0.36 -0.46,0.73 -5.54,5.82 -6.02,6.06 -6.69,9.37 -0.35,30.13 0.14,0.28 0.14,0.28 30.32,102.73 l 6.75,22.91 c 9.65,-0.87 19.07,3.25 24.54,10.99 8.78,12.47 5.46,29.45 -7.58,38.65 -13.03,9.21 -30.13,6.65 -38.96,-5.82 -5.86,-8.32 -6.3,-19.39 -1.37,-28.5 l -11.38,-7.94 -0.01,-0.01 c -1.28,-0.88 -59.81,-40.49 -59.81,-40.49 l -8.2,-5.56 0.54,-0.03 c -8.07,-5.39 -20.74,-13.52 -26.19,-16.9 l -0.1,0.16 -16.33,-10.7 c -5.83,-4.04 -10.26,-4.66 -15.31,-2.09 l -8.13,4.03 -0.85,-0.03 c -2.82,-0.08 -5.21,-1.61 -6.73,-4.28 -0.67,-1.18 -2.1,-4.21 -0.87,-7.17 l 0.64,-1.01" /></g></g></svg>