<?xml version="1.0" encoding="UTF-8"?>
<svg xmlns="http://www.w3.org/2000/svg" xmlns:xlink="http://www.w3.org/1999/xlink" viewBox="0 0 786.43 1702.88">
  <defs>
    <style>
      .cls-1 {
        fill: url(#linear-gradient);
      }

      .cls-2 {
        isolation: isolate;
      }

      .cls-3 {
        mix-blend-mode: screen;
        opacity: .62;
      }
    </style>
    <linearGradient id="linear-gradient" x1="393.21" y1="1990.87" x2="393.21" y2="-1190.47" gradientUnits="userSpaceOnUse">
      <stop offset="0" stop-color="#0eded1"/>
      <stop offset=".12" stop-color="#0edace" stop-opacity=".98"/>
      <stop offset=".24" stop-color="#0ecec6" stop-opacity=".93"/>
      <stop offset=".35" stop-color="#0ebab9" stop-opacity=".84"/>
      <stop offset=".47" stop-color="#0e9ea6" stop-opacity=".71"/>
      <stop offset=".59" stop-color="#0e7a8e" stop-opacity=".54"/>
      <stop offset=".71" stop-color="#0e4e71" stop-opacity=".34"/>
      <stop offset=".82" stop-color="#0e1b4f" stop-opacity=".1"/>
      <stop offset=".87" stop-color="#0f0541" stop-opacity="0"/>
    </linearGradient>
  </defs>
  <g class="cls-2">
    <g id="Layer_2">
      <g id="Top_layer">
        <g class="cls-3">
          <path class="cls-1" d="M273.96,1435.83c5.81-39.23,11.58-29.7-8.4-63.95-19.98-34.26-40.3-22.41-60.28-56.67-19.98-34.26,2.09-47.21-19.45-80.5-20-30.9-48.94-10.13-70.45-40-21.52-29.87-3.45-42.88-24.96-72.75s-12.02-30.11-13.23-66.9c-1.1-33.37,14.46-14.96,34.1-41.97,19.64-27.01,26.05-22.35,45.68-49.36,19.64-27.01-11.92-49.96,7.72-76.97,19.64-27.01,37.25-14.31,39.17-47.65,1.96-33.98-5.87-29.76-22.23-59.61-16.36-29.84,11.13-44.92-5.23-74.76s-61.31-5.2-77.67-35.04c-16.36-29.84-25.34-24.92-41.7-54.77-16.36-29.85,3.68-40.84-12.68-70.68s-5.81-32.71-13.43-65.88C21.64,438.02,0,440.14,0,398.74c0-41.4,48.45-41.4,48.45-82.79,0-41.4-63.51-53.35-43.32-89.49,16.86-30.19,34.07-27.67,65.39-42.33,31.32-14.66,30.01-17.45,61.33-32.1,31.32-14.66,41.4,6.89,72.71-7.77,31.32-14.66,27.31-23.22,58.62-37.88,31.32-14.66,44.9,14.37,76.22-.29,31.32-14.66,25.74-26.58,57.06-41.24S419.61,1.86,454.15.1c34.39-1.75,40.89,19.38,73.37,30.8,32.49,11.42,32.8,10.52,65.29,21.94,32.49,11.42,46.67,7.34,69.52,33.1,25.5,28.74,15.41,42.74,25.85,79.72,10.44,36.98-5.69,41.53,4.75,78.51s13.5,35.08,10.46,73.38c-2.6,32.74-10.81,26.99-26.47,55.85s-32.33,27.68-31.43,60.51c.97,35.43.51,42.97,17.81,73.9s9.93,35.05,27.23,65.99c17.3,30.94,46.9,14.38,64.2,45.32,17.3,30.94,30.37,26.8,31.63,62.23,1.37,38.34-23.11,30.74-38.05,66.07-14.94,35.34-6.94,38.72-21.88,74.06-14.94,35.34,15.29,48.12.35,83.46-14.94,35.34-38.61,25.34-53.55,60.68-14.94,35.34-28.36,30.99-35.98,68.59-6.28,31.02-11.56,32.73-10.19,64.35,1.37,31.62,25.89,30.56,27.26,62.18,1.38,31.62,13.25,31.11,14.62,62.73,1.38,31.62-5.44,30.84-1.89,62.29,4.34,38.4,15.32,35.64,21.82,73.73,6.5,38.1-12.24,38.92-26.72,74.76-14.29,35.37-19.96,23.5-50.88,45.85s-42.76,5.96-73.68,28.3c-30.92,22.34-14.39,45.22-45.32,67.57s-50.49-4.74-81.42,17.61c-30.93,22.34-14.26,45.42-45.18,67.76-30.93,22.34-22.04,42.48-60.19,41.51-36.86-.94-11.89-37.84-40.01-61.69-28.13-23.85-29.15-22.65-57.27-46.5-28.13-23.85-40.06,7.26-40.07-29.61,0-34.95-20.66-44.13,7.46-64.89,28.13-20.76,52.84,13.31,81.49-6.72,22.08-15.43,11.74-23.01,16.86-57.59Z"/>
        </g>
      </g>
    </g>
  </g>
</svg>