<?xml version="1.0" encoding="UTF-8"?>
<svg xmlns="http://www.w3.org/2000/svg" xmlns:xlink="http://www.w3.org/1999/xlink" viewBox="0 0 1225.2 1969.72">
  <defs>
    <style>
      .cls-1 {
        fill: url(#linear-gradient);
      }

      .cls-2 {
        isolation: isolate;
      }

      .cls-3 {
        mix-blend-mode: screen;
        opacity: .37;
      }
    </style>
    <linearGradient id="linear-gradient" x1="612.6" y1="-34.56" x2="612.6" y2="2290.36" gradientUnits="userSpaceOnUse">
      <stop offset="0" stop-color="#0eded1"/>
      <stop offset=".12" stop-color="#0edace" stop-opacity=".98"/>
      <stop offset=".24" stop-color="#0ecec6" stop-opacity=".93"/>
      <stop offset=".35" stop-color="#0ebab9" stop-opacity=".84"/>
      <stop offset=".47" stop-color="#0e9ea6" stop-opacity=".71"/>
      <stop offset=".59" stop-color="#0e7a8e" stop-opacity=".54"/>
      <stop offset=".71" stop-color="#0e4e71" stop-opacity=".34"/>
      <stop offset=".82" stop-color="#0e1b4f" stop-opacity=".1"/>
      <stop offset=".87" stop-color="#0f0541" stop-opacity="0"/>
    </linearGradient>
  </defs>
  <g class="cls-2">
    <g id="Layer_2">
      <g id="Middle_layer">
        <g class="cls-3">
          <path class="cls-1" d="M699.54,71.15c-39.79-10.81-31.16-44.51-71.15-54.51s-55.14,50.55-95.14,40.55c-40-10-30.76-65.05-71.04-56.24-32.37,7.08-3.42,43-26.48,66.8-23.06,23.8-43.02,4.46-66.09,28.26-23.06,23.8,5.31,51.3-17.75,75.1-23.07,23.8-41.78,5.67-64.84,29.47-23.07,23.8-52.86-2.47-74.12,22.96-23.23,27.77-20.91,31.57-42.23,60.83-21.32,29.26-28.81,23.8-50.13,53.07-21.32,29.26,15.57,56.14-5.75,85.4s-23.34,27.8-44.66,57.06-46.53,16.04-52.89,51.68c-5.95,33.3-24.54,43.98-14.19,76.19s67.43,13.86,77.78,46.07,21.75,28.54,32.09,60.74c10.35,32.2-15.11,40.38-4.77,72.59,10.35,32.21-12.41,39.52-2.07,71.72,10.35,32.21,45.17,21.02,55.51,53.23,10.35,32.21-36.76,38.69-34.98,72.47,1.81,34.33,45.46,34.97,38.58,68.65-6.87,33.69,2.33,35.57-4.54,69.25-6.88,33.69-3.35,34.41-10.22,68.1s-46.99,27.5-41.01,61.35c6.92,39.18,28.59,29.31,47.59,64.27s-13.94,52.86,5.06,87.82c19,34.96,32.53,27.61,51.53,62.58,19,34.96,78.52,24.88,79.22,64.67.6,34.09-29.49,42.53-47.36,71.57-17.87,29.04-16.92,29.62-34.8,58.66-17.88,29.04-24.03,25.25-41.91,54.29-17.88,29.04-43.26,9.47-32.19,41.72,11.23,32.71,13.15,18.51,45.34,31.17,32.19,12.66,27.7,24.06,59.89,36.72,32.19,12.66,33.99,8.07,66.18,20.72,32.19,12.66,32.43,12.04,64.61,24.7,32.19,12.66,23.64,34.38,55.83,47.04,32.19,12.66,28.58,21.85,60.76,34.5,32.19,12.66,46.71-24.26,78.9-11.61,32.19,12.66,29.77,30.72,64.31,28.82,36.82-2.03,38.91-7,72.01-23.25s28.62-25.36,61.72-41.61c33.1-16.25,16.18-50.72,49.28-66.97s46.35,10.73,79.45-5.52c33.1-16.25,42.89-1.29,70.15-26.12,25.37-23.1,30.84-22.65,48.14-52.29,17.3-29.64-7.49-44.11,9.81-73.75,17.3-29.64,5.3-36.65,22.6-66.29,17.3-29.64,21.9-26.96,39.2-56.6,17.3-29.64,22.25-14.31,21.32-48.62-1.11-41.08,27.04-45.59,7.96-81.98-19.09-36.39-42.7-24.38-47.54-65.18-4.52-38.11,32.95-27.95,43.34-64.89,10.39-36.94-21.39-45.88-11-82.83s50.75-27.91,58.93-65.4c7.62-34.93-27.12-42.63-21.75-77.97,5.37-35.34,8.48-34.87,13.86-70.22s28.5-31.83,33.88-67.17,3.55-35.62,8.93-70.96,14.4-33.97,19.78-69.32c5.38-35.35-64.7-46-59.32-81.35,5.38-35.35,55.1-27.79,60.47-63.13s17.11-41.86,8.55-76.58c-7.99-32.43-13.5-39.29-34.08-65.6-20.57-26.32-51.4-2.22-71.97-28.53-20.57-26.32-43.98-25.26-47.77-58.44-3.68-32.23,60.04-16.68,74.29-45.83s-43.57-57.4-29.33-86.54c14.24-29.15,37.63-17.71,51.88-46.86s10.34-14.34.48-45.25c-12.42-38.91,17.03-55.65-14.71-81.34-31.75-25.69-27.93-30.41-59.68-56.11s-38.31-38.69-78.04-48.15c-36.87-8.78-35.69,53.75-72.4,63.14-36.72,9.39-37.04,8.15-73.75,17.54-36.72,9.39-45.76-40.75-83.34-35.86-44.52,5.8-41.12,29.09-84.19,17.39Z"/>
        </g>
      </g>
    </g>
  </g>
</svg>